/* XPM */
static char *_d49f9150a844e4cd1cf2b4c5f254b36eSOmSAvGvwjn9aCW[] = {
/* columns rows colors chars-per-pixel */
"50 50 256 2 ",
"   c #0A000A",
".  c #14040B",
"X  c #0C0319",
"o  c #1A0B16",
"O  c #14041A",
"+  c #1B0B1C",
"@  c #170616",
"#  c #1E1418",
"$  c #15100D",
"%  c #23091B",
"&  c #22121D",
"*  c #261B1A",
"=  c #2E1D0B",
"-  c #1B0725",
";  c #1C1424",
":  c #1B0831",
">  c #240A27",
",  c #241324",
"<  c #2A1425",
"1  c #251A23",
"2  c #2A1C25",
"3  c #23142B",
"4  c #2B142B",
"5  c #251A2C",
"6  c #2C1B2C",
"7  c #331C2B",
"8  c #341D28",
"9  c #2C1B34",
"0  c #291634",
"q  c #331C34",
"w  c #331737",
"e  c #260E35",
"r  c #2D222C",
"t  c #292427",
"y  c #33232C",
"u  c #3B2B2D",
"i  c #362728",
"p  c #3B352A",
"a  c #2E2134",
"s  c #2D2338",
"d  c #342433",
"f  c #3A2434",
"g  c #362A33",
"h  c #3B2B34",
"j  c #34233D",
"k  c #3C2C3B",
"l  c #38273B",
"z  c #3B3235",
"x  c #3C323C",
"c  c #373239",
"v  c #2F313D",
"b  c #302E18",
"n  c #432C24",
"m  c #49362C",
"M  c #422D3C",
"N  c #442C37",
"B  c #423334",
"V  c #43323B",
"C  c #493A39",
"Z  c #583E39",
"A  c #543D2C",
"S  c #522E16",
"D  c #4B453B",
"F  c #554739",
"G  c #56553B",
"H  c #4D4B30",
"J  c #664D36",
"K  c #67553B",
"L  c #6C552D",
"P  c #56623F",
"I  c #76663A",
"U  c #6A683B",
"Y  c #5A441B",
"T  c #341B42",
"R  c #3C2B43",
"E  c #372543",
"W  c #383142",
"Q  c #422B44",
"!  c #4A3C42",
"~  c #463847",
"^  c #503953",
"/  c #431A44",
"(  c #3E404D",
")  c #4A4545",
"_  c #564A46",
"`  c #585847",
"'  c #594B55",
"]  c #575557",
"[  c #4B524C",
"{  c #634C47",
"}  c #665647",
"|  c #675A57",
" . c #765A4A",
".. c #5B6446",
"X. c #57625A",
"o. c #676748",
"O. c #776748",
"+. c #6B774A",
"@. c #747A4B",
"#. c #696956",
"$. c #766B56",
"%. c #6C7654",
"&. c #727353",
"*. c #767A58",
"=. c #5A4A65",
"-. c #5D5965",
";. c #685968",
":. c #675471",
">. c #6C676A",
",. c #797762",
"<. c #746B75",
"1. c #7A7578",
"2. c #71666D",
"3. c #81733C",
"4. c #856E4C",
"5. c #89784A",
"6. c #877653",
"7. c #957D55",
"8. c #8A7051",
"9. c #83767C",
"0. c #877A67",
"q. c #7A8657",
"w. c #788B4E",
"e. c #7A8565",
"r. c #929836",
"t. c #978549",
"y. c #82964A",
"u. c #838B59",
"i. c #988654",
"p. c #86945A",
"a. c #8F8F54",
"s. c #A2884B",
"d. c #A8964C",
"f. c #A38C56",
"g. c #A99659",
"h. c #B29A52",
"j. c #88A65B",
"k. c #95AC5D",
"l. c #9BAB5C",
"z. c #95A858",
"x. c #95B25D",
"c. c #9BB35D",
"v. c #9AB554",
"b. c #94AF50",
"n. c #A6AB58",
"m. c #B6A35B",
"M. c #ACB45D",
"N. c #A5B65A",
"B. c #B7B75C",
"V. c #AFA349",
"C. c #838866",
"Z. c #889664",
"A. c #949C65",
"S. c #8F8C71",
"D. c #A89662",
"F. c #A7946A",
"G. c #8CA766",
"H. c #94AC64",
"J. c #9BAB63",
"K. c #98A867",
"L. c #8BB167",
"P. c #9CB363",
"I. c #9CB16C",
"U. c #98B666",
"Y. c #99B672",
"T. c #99AD74",
"R. c #A5AB65",
"E. c #B8A766",
"W. c #A3BC64",
"Q. c #A3B36C",
"!. c #A3BA6A",
"~. c #A8B766",
"^. c #B5B563",
"/. c #B4BA63",
"(. c #BCBB65",
"). c #B6B969",
"_. c #A7BA75",
"`. c #B5B576",
"'. c #C7BA5C",
"]. c #D5BD5C",
"[. c #DBBF5B",
"{. c #D6BF53",
"}. c #CDB751",
"|. c #C7BB66",
" X c #D7BE64",
".X c #D9BC64",
"XX c #CDBC71",
"oX c #E1BF66",
"OX c #B7C65E",
"+X c #9CC46A",
"@X c #ABC36C",
"#X c #A8C768",
"$X c #B8C367",
"%X c #ACC272",
"&X c #A9C676",
"*X c #B4C975",
"=X c #B9D278",
"-X c #BBD16F",
";X c #DAC35D",
":X c #D8C55A",
">X c #CCCC58",
",X c #E1C55C",
"<X c #EED75B",
"1X c #F5DA5E",
"2X c #C8C566",
"3X c #D9C263",
"4X c #D7C665",
"5X c #CACC70",
"6X c #ECD766",
"7X c #F2D868",
"8X c #F4DB75",
"9X c #E6CC6C",
"0X c #F9E568",
"qX c #FCEE74",
"wX c #777287",
"eX c #7C6BA2",
"rX c #847A88",
"tX c #897C90",
"yX c #8A8289",
"uX c #94898B",
"iX c #978A96",
"pX c #9C979B",
"aX c #888596",
"sX c #A39B99",
"dX c #B0B38B",
"fX c #928CA6",
"gX c #AAA4A8",
"hX c #BBB4B9",
"jX c #B3ACAF",
"kX c #A19D98",
"lX c #C2B7BB",
"zX c #BACD89",
"xX c #B6C8A2",
"cX c #CBD7AE",
"vX c #CCE9BB",
"bX c #BAB7C5",
"nX c #C4BAC2",
"mX c #CBC5C8",
"MX c #D7D6D4",
"NX c #D3CED0",
"BX c #E4DEDB",
"VX c #DCEFD6",
"CX c #E4E7DC",
"ZX c #E1E6C6",
"AX c #DAD4EA",
"SX c #DDE5F2",
"DX c #F5F5F4",
"FX c #F4FAF4",
"GX c #FBFCF6",
"HX c #F5F5FA",
"JX c #FBF5FD",
"KX c #F6FAFA",
"LX c #FDFDFD",
"PX c #FAF5F5",
"IX c #F1F1EC",
"UX c #E7DCE2",
/* pixels */
"1.u.U.U.x.U.G.|.M.H.L.&Xq.X 4.8X[..X[.;X.X.X[..X6XV.i k 4 o hXLXHXLX9.o k h ) | f.` +.M 5.h D &.4 ' ",
"_ w.W.P.H.z.(.(.H.z.M.$Xu.:  .6X:X3X:X:X4X4X:X:X0Xm.d 5 # lXLXFXKXLXjX+ l y ,.*.i.o.&.! E.h ` C.> F ",
"C p.W.J.H.B.2XJ.G.^.2X2XA.; D 9X<X6X6X6X9X,X,X9X7XE.< + jXLXLXIXFXLXMX6 l t 0.o.7.o.%.! g.f ` *.- O.",
"j a.@XI.~.$Xl.K.K._.c.~.).V r K  .K J { _ Z Z C m A @ rXLXFXHXLXFXLXJX' , 2 $.&.s.I *.C D.M ` @.- 5.",
"q u.&XH.(.N.j.T.x.L.z.(.|.^ q 5 e 6 t 5 r r a v ( # ~ PXGXIXKXHXHXDXLXyXo g C p f.O.C.m i.n | @.- i.",
"2 q.+Xk.).M.b.l.k.n.|.5X!.) 7 Q i u.I.G.K.J.H.I.zXH wXJXPXKXHXGXHXHXLXgXo k d d M ! #.z F.A } q.O D.",
"2 +.&Xk.l.)./.).`.|.B.c.!.` t R t Z.*XU.!.!.!.U.$XI ' LXLXGXGXIXHXHXLXhX& h k Q 9 , ; - D i _ &.- $.",
"w U %XH.k.l.~.~.M.c.G.H.@X` 1 Q j u.$X$X|.'.'.>X4X^.* ) AXLXLXLXPXDXLXMXy f h 2 z G $.,.H C d q k h ",
"0 P @X~.U.U.Y.P.P.@X#X#XzX$.< k 6 w.N.V.l.l.R.Q.#X+.+ > 8 >.NXLXLXLXGXCXc q q o.P._.*X@X@XQ.A.H 9 f ",
"w G *X%X_.P.Q.K.G.u.q.w.+.D j d x kXcXcXvXcXT.l.$X^.$.f y @ 1 ] gXIXLXbX& 8 C %X#XP.z.U.x.U.%X*Xo.6 ",
"k x ` H _ V u u x q - : 3 f h r yXMXZXcXxXVXzXb.2XV.n O r ~ l > o V ] ~ 6 w ` %XU.H.I.T.H.H.x.W.W.C ",
"z j 9 7 % 6 ` C.p.p.%.! 3 f V h i Z.N.V.y.cXcXj.dXdXyXsX` y u M E ; 3 1 V q p _.!.P.P.k.I.J.k.c.#Xq.",
"x g ~ 9 B G.+X#X~.%X%XI.#.5 j h a q.#Xv.z.dXIXCXCXMXhXgX) 0 a 3 M B - B i.} h o.*Xc.k.P.P.l.J.I.%XA.",
"k B d r A.%Xv.2X'.|.B.2X*X*.t T N a.$X).P.j.zXzX&Xy.# O i Z { _ V.XX4.m.}.6.) * z.&XU.k.J.I.H.I.*X&.",
"g k 6 +.@Xn.|.|.n.M.B.|.$X-X*.- J 5X>X2X).P.v.v.#X~.p 7 $.i.3.5.].i._ |.i.- k w p T.*Xv.P.I.x.#XR.z ",
"c l l G.+X$X(.G.G.Y.j.l.).N.&X..> q.W.J.H.G.A.p.u.&.W h C V & R t.1 : 7.K T i B 0 h *._.@X@X_.p.C 9 ",
"2 5 B k.I.XXJ.v.B.].|.Q.K.J.W.!.x 5 ~ ~ ! B h d 2 9 f B j E R V q 3 6 q 9 E k p Q q 3 t H A p O @ 4 ",
") E l z.#X/.!.!.XXb./.|.N.j.U.@Xu.1 y d d 2 @ + + > N M N M d 2 ~ ` ` ' _ C 5 / B B l ] =.=.-.:.;.' ",
"GXCX^ o.@XP.x.~.`.K.z./.$XU.H._.K.k f V 3 1 1.hXhXyX6 y N q i u.!.U.#X@X!.x.w.u r % | GXLXJXLXLXLXLX",
"LXLX:.. K.*X+XR.v.l.W.%XR.).#X=Xu.6 k & k mXLXLXLXLXgX# y y S.*XN.|.~.L.c.N.zXC.0 > <.GXLXLXGXLXGXLX",
"LXLX2.@ l +.G.`._.&XT.` z #.p.w.z a h @ mXLXGXFXHXGXLX;.. o.=XG.I./.4XB.H.L.c.@X`   <.LXKXJXFXDXGXDX",
"LXLX>., f 2 a m _ [ g + w - > - E ~ o 1.LXGXHXFXHXIXLXgX. p.#XI.J.j.N.,X^.I.z.&Xq.. 9.LXGXDXFXPXHXGX",
"JXLX>.- l w B i.I I 7.i.5.i.7.J 1 j 1 BXLXFXHXPXPXGXLXiXi _.x.~.2X(.G.N.[.oXR.!.Z.O tXLXLXPXHXHXGXDX",
"GXLX#.& M q D.5.4.S.4.4.O.&.*.i.o.O 2.GXLXHXKXHXHXFXLXrXb #Xx.K.n.3X|.Z.L.B.4XOXZ.O iXLXLXLXLXLXGXFX",
"LXLX_ 2 6  .4.r ,.[ [ ....[ G H i.A 2.LXKXFXJXJXJXGXPXR p Q.(.XXj.n.4X'.z.G.~.6Xl.4 ' bXmXCXDXLXLXLX",
"pXpX~ j ; 5.K %.! } J i _ _ g ` O.I ~ JXGXGXPXFXKXLXiX. i A.$X5X$Xj.P.2X4X^.z.$X_.! & # r R ~ =.<.rX",
"    e 3 3 g.| ,.c } f.K z %.#.-.} I # tXLXLXLXGXPXiX5 q 2 #.*Xb.3X).j.j.M.4X/.x.P._ d k < - + O     ",
"f.t.7.t.F 6.H ' *.D O.g.U G #.G g.I 4 , ' 2.9.rX) @ d M l r Z.*XN.|.'.~.j.n.~.U.U.) 0 g I s.d.m.m.g.",
"8X1X7XqX7.n i.B ` } 6.4.O., { g.8.i R 9 @ #   . 8 h x k M q g C.&X$XB.(.R.H.H.%XK.k j 7 |.qX6X6X6X7X",
"5X:X].7Xm.% | $.= Y K n  .i.m.Z : ; 1 W +.Q.+.v 8 V g x h Q w * } Z.Y.&X%X@X#X%X` 6 l 6 f.7X3X].3X.X",
"4X,X.X4X|.R ; = sXuXa   C 0.u 3 9 o.R.2X>X$X=Xu.d k M h h q q y 3 r _ *.q.w.u.G 1 M V , t.7X:X;X:X:X",
"4X{..X,X].! X iXGXLXCX1.@ e E g *.-X5X|.'.).v.&X] 0 M y g ' | [ x d w % + 4 q w k N R 0 t.8X{.;X].3X",
"8X7X7X<X0XA e IXLXFXLXLX2.@ 6 G 5X$X^.^.B.R.v.Q.) q 7 G *.@.,.o.U | U o.>.h j k c x g < D.qX8X7X7X7X",
"f.d.g.V.|.F 9 LXLXFXDXLXJXx + &.-X/./.^.^.Q.+X+.9 w ` e.u O X m C } F t C.A.d d 7 q f q _ O.4.5.7.s.",
"> @ - 4 f k , gXLXFXFXPXLXuX  *.-XM./.B.B.I.&XG 0 y #.@.L <.fXd.i.s.4.fX) o.` h D B C ~ 9 3 ; ; : + ",
"*.@.&.V 9 h i $ lXLXDXPXKXmX@ *.5X(.B.B.(.~.%Xo.3 C _ g.'.PXIXr.L S F.LX^ 2 o.F _.k.K.K.K.A.K.A.p.q.",
"&X@X=X..6 l Q 0 & NXLXDXLXBX, G ^.^.B.B.^.~.@Xq.> | | i C :.~ n  .J S.wXm 0.#.V I.#XW.U.#XW.W.W.@X@X",
"T.U.@Xo.5 k M ~   >.LXPXLXBXd H !.).).).^.~.#Xq.e ` ,.^ m 3.i ' 4.B.CXwXI m.#.4 %.-X@X&X%X_.!.W.P.P.",
"Q.!.zX..1 k R h . gXLXGXLXBX4 D Y.c.n.M.B.~.#X*.: p hXAXd.:XjXAXi C =.~ n G ,.4 h o.o.&.&.q.A.z.l.Q.",
") F ` ! d k R $ | LXLXDXLXhX- C %X$X5X5X2XB.=Xq.- F 1.=.} A fXsXI K J m.a.` ` e d , 4 2 2 r u z p D ",
"q e @ r j g g d UXLXKXGXLXuXO y ` e.q.y.c.%XZ.D w D S.aXi g l F m t.d.m.R.&.t g 6 , & o o @ % M j d ",
"9 H 5.t.O.C @ 9.LXKXHXLXLX) 3 R < 4 9 r _ | y 7 T G S.=.4Xf.B.t.eX| C x #.p ' UXNXnXhXgXpXyX;.7 h k ",
"J E.} Z { M # ' LXLXLXLXpXo 6 , 2 d 9 s ; O - e 2 G _ N s.J 5.H { -.SXX.+.. :.LXGXLXLXLXLXLXmX, k h ",
"`.m e E 9 9 6   1.LXLXhX; 2 F i.h.g.m.E.g.g.5.I p a O.O.+ AXfX6.D.=.<.q.| . 2.LXLXDXGXHXGXLXjX# f f ",
"! 5 d , C O.4.$.* k ;.1 9 y E.qX6X7X7X<X1X<X7XqXd.+ _ #.G VX<.L S.uXo.$.q o S.LXPXDXLXDXFXLXpXo < 4.",
"- j F 5.g.t.O.4.a.i - h R y }.<X3X].:X].;X;X{.:X0XO.- ~ @.o.o.G ..Z.` 6 h . uXLXPXGXDXDXGXLXiX  } f.",
"I 5.D.8.N 4 0 + I 4.q l E y h.7X.X3X3X].3X3X.X.X8X7.0 d 8 M F _ G c s h h + pXLXPXDXKXKXGXLX9.. { i.",
"O.} j 0 q R d 6 ! I > 0 d 2 d.8X;X].3X3X].].;X{.6Xi.5 k M l d 9 > < V z h + hXGXLXLXLXLXLXLX1.+ d F ",
"; , 4 7 7 g k a O.5.p ` C 3 i.1X[.[.[.[.[.[.[.[.7Xh.7 k h V 7 2 | C 6 k h 6 <.jXhXmXNXmXNXMX' < M 6 ",
") ` &.*.q.Z.A.A.2X~.T.=X*.- 7.7X X X X X X3X3X3X6XV.d j c g 2 gXLXNXr d k V 2 o , 7 8 8 6 r g x d ! "
};
