/* XPM */
static char *Casa11699140985[] = {
/* columns rows colors chars-per-pixel */
"50 50 256 2 ",
"   c #6D1706",
".  c #72330E",
"X  c #603320",
"o  c #7A541E",
"O  c #754E35",
"+  c #724B41",
"@  c #6A7C78",
"#  c #767773",
"$  c #5A685D",
"%  c #870300",
"&  c #891704",
"*  c #971804",
"=  c #960D00",
"-  c #A61902",
";  c #A3130B",
":  c #9D2202",
">  c #992604",
",  c #983705",
"<  c #8B310E",
"1  c #A32302",
"2  c #A52905",
"3  c #AA3304",
"4  c #955111",
"5  c #AA4607",
"6  c #AB5704",
"7  c #B95703",
"8  c #B64B0F",
"9  c #946414",
"0  c #AA6506",
"q  c #B66805",
"w  c #B97508",
"e  c #A66817",
"r  c #B87814",
"t  c #AD7212",
"y  c #965923",
"u  c #84522D",
"i  c #AC5735",
"p  c #976836",
"a  c #946A33",
"s  c #AC7531",
"d  c #C86C08",
"f  c #C77906",
"g  c #D57905",
"h  c #C96A16",
"j  c #CB7415",
"k  c #D77915",
"l  c #D16F00",
"z  c #CE7523",
"x  c #D46A0D",
"c  c #8D5C47",
"v  c #906F4A",
"b  c #AC7B4C",
"n  c #937978",
"m  c #6B827B",
"M  c #728779",
"N  c #B98418",
"B  c #BE840E",
"V  c #B98827",
"C  c #A9863C",
"Z  c #B98A35",
"A  c #BA9538",
"S  c #BC9724",
"D  c #A79537",
"F  c #CA850B",
"G  c #DD8B0B",
"H  c #D88405",
"J  c #C98416",
"K  c #D88616",
"L  c #D99715",
"P  c #D8910E",
"I  c #E48A0A",
"U  c #E3950B",
"Y  c #E69415",
"T  c #F6AC04",
"R  c #EAA618",
"E  c #F4A818",
"W  c #F3B411",
"Q  c #C9902E",
"!  c #E49D34",
"~  c #CBA52F",
"^  c #FAB823",
"/  c #ECB52C",
"(  c #DDA417",
")  c #FEDC1C",
"_  c #FADA28",
"`  c #F9C638",
"'  c #F7D031",
"]  c #FEE52F",
"[  c #AA8549",
"{  c #B48947",
"}  c #B8954B",
"|  c #AA8A56",
" . c #B28B53",
".. c #B38A58",
"X. c #AB9459",
"o. c #B69558",
"O. c #A9914B",
"+. c #B7A45C",
"@. c #938E70",
"#. c #A99867",
"$. c #B79966",
"%. c #AA9A77",
"&. c #AF8F6C",
"*. c #9FB47B",
"=. c #99AA6D",
"-. c #ADA56A",
";. c #BAA66A",
":. c #ABA679",
">. c #B7A877",
",. c #A2B579",
"<. c #BAB477",
"1. c #B6B26A",
"2. c #938058",
"3. c #C7994A",
"4. c #C59A55",
"5. c #D49D51",
"6. c #C6A44D",
"7. c #C6A558",
"8. c #D3AD56",
"9. c #E5B653",
"0. c #C2996A",
"q. c #C8A968",
"w. c #D3AC65",
"e. c #CAB569",
"r. c #D6B66A",
"t. c #C3AB74",
"y. c #C6AA78",
"u. c #C8B578",
"i. c #D4B776",
"p. c #D4AF7B",
"a. c #E5BC6D",
"s. c #FACA48",
"d. c #FBD84A",
"f. c #F6CB57",
"g. c #FCD45B",
"h. c #FCDB5C",
"j. c #F9D755",
"k. c #ECCB57",
"l. c #FBE649",
"z. c #FCE358",
"x. c #FBF254",
"c. c #D5C376",
"v. c #D1C56E",
"b. c #F6CA66",
"n. c #FBD563",
"m. c #FCDB64",
"M. c #FDDC6B",
"N. c #F8D767",
"B. c #E9CB79",
"V. c #FADC75",
"C. c #EBCE68",
"Z. c #FEE364",
"A. c #FDE46B",
"S. c #F8E967",
"D. c #FCE774",
"F. c #FCF677",
"G. c #F9F26B",
"H. c #6B7D88",
"J. c #977E81",
"K. c #798D89",
"L. c #7C928C",
"P. c #799485",
"I. c #728A8E",
"U. c #5E8D83",
"Y. c #838E89",
"T. c #869794",
"R. c #8C968D",
"E. c #AC9B8C",
"W. c #97A59A",
"Q. c #9EB083",
"!. c #A8A888",
"~. c #B7AB88",
"^. c #ACBC84",
"/. c #ACBD8B",
"(. c #A7B587",
"). c #B8B788",
"_. c #AAA899",
"`. c #B4A699",
"'. c #ADB895",
"]. c #B6B795",
"[. c #9BA8A4",
"{. c #9DAFAF",
"}. c #A4ADA4",
"|. c #A9B4A8",
" X c #B6B8A8",
".X c #A8B8B6",
"XX c #B9B9B4",
"oX c #ACAAB1",
"OX c #AB9FAB",
"+X c #C7B684",
"@X c #D7BB85",
"#X c #C8B796",
"$X c #C8B390",
"%X c #C6BAA8",
"&X c #C3BCBB",
"*X c #ACC286",
"=X c #B8C294",
"-X c #B7C089",
";X c #B8C5B7",
":X c #B9C6AD",
">X c #C7C28B",
",X c #D3C798",
"<X c #CFC58F",
"1X c #E8D589",
"2X c #EACC99",
"3X c #F7D39A",
"4X c #EECE8C",
"5X c #FDE88E",
"6X c #C9C7A9",
"7X c #C7C9B6",
"8X c #D6CBB8",
"9X c #CCD6BA",
"0X c #D4D6B9",
"qX c #CFCCA9",
"wX c #F5CEA7",
"eX c #EAD6A8",
"rX c #F3D4A4",
"tX c #F8D7A9",
"yX c #EBD6B3",
"uX c #F7DAB5",
"iX c #F1CEA6",
"pX c #DBE4BB",
"aX c #F9E3AA",
"sX c #FAE5B9",
"dX c #EDE1B8",
"fX c #BABECB",
"gX c #C2BCC8",
"hX c #B9C1CC",
"jX c #BBCBEC",
"kX c #C6C8C8",
"lX c #D5D8C8",
"zX c #DADCD7",
"xX c #C8D5CC",
"cX c #ECD9CB",
"vX c #DAE2C7",
"bX c #DDE4D3",
"nX c #E9E8CD",
"mX c #F4E5CB",
"MX c #F8E7C6",
"NX c #FCF2CA",
"BX c #E6E8DA",
"VX c #F6ECD7",
"CX c #FCF3DB",
"ZX c #F8F6D7",
"AX c #E9F4D5",
"SX c #EAF6E7",
"DX c #FBF4E3",
"FX c #FBFAE5",
"GX c #FBF5EB",
"HX c #F6FCEC",
"JX c #FDFCEB",
"KX c #F4F5E5",
"LX c #FDFDF3",
"PX c #FDFDFB",
"IX c #F8FAF5",
"UX c #EBEDE6",
/* pixels */
"nXyXtXrXuXtXsX[.#XuXaX3XMXPX;X@ @.L.L.Y.Y.L.I.Y.M W.FXJXLXLX6X(.<.,.vXLXLXKXZXlX;XVXMXHXfXBXZXVXGXKX",
"8XMXyXtXtXMX~.!.sX3X8XqXMXPXxXH.I.L.L.P.P.I.I.K.H.W.JXJXFX6X*.*X1.r.i.CXIXFXMXcX{.VXMXUXW.UXNXMXLXxX",
"VXsXtXrXsX#XE.yXuX$XR.:.eXPXBX@ m H.I.H.I.I.P.P.U.W.IXPX7X:.1.v.N.k.d.f.MXJXcXMXfXyXNXCX[.UXCXuXPXxX",
"IXdX3XsX%XR.uXaXMX#XyXuX_.SXIXzX;X9XlXxXzXzXBXUXzXUXGX#X7.C.A.n.b.5X1Xg.s.sXnXNX[.0XNXAXW.UXDXMXPX;X",
"IXsX3XuX`.7XuXtXrXsXNX%XW.SXGXLXPXLXFXFXLXPXJXFXsX4Xb.h.z.h.s.` 3XtXuXaXB.s.aXZX{.xXVXZXW.UXDXsXPX|.",
"LXuXtXaX6X#XsXsXsXyX(.@.eXFXLXSXCXuXuXtXrXi.9.j.z.A.h.h.n.h./ s.4XV.B.4XB.b.s.aXAXVXKXSXT.zXCXMXPX}.",
"JXMXwXuXyX#X].#X].`._.yXtXNXFXVXaX1XB.j.z.G.Z.h.Z.k.g.m.m.g.s.E 9.a.C.w.b.g.C.f.5XZXLXLXlXBXGXmXPX7X",
"JXMXuXwXuXuX,X6X,XeXaXuXcXtX9.) ) ] z.z.d.z.N.j.h.d.d.g.g.g.` W T ! 5.5.k.s.f.f.s.4XMXmXCXDXGXFXIXLX",
"FXVXeXaXrXtXtXtXuX3XtX3XC.` E f K _ ) d.h.l.h.z.N.d.j.f.d.h.j.s.^ E ! Q f.M.k.b.f.s.f.iXeXeXyXNXJXHX",
"FXmXwX2XtXeXyXuXtXMXdXk.W P q y 4 w W _ j.Z.j.Z.Z.S.z.j.d.j.M.j.j.j.s./ f.n.f.b.b.C.k.j.tXtXrXwXMXJX",
"LXVXmXmXVXKXKXFXHXNX9.E F 6 s 6.4.y e W ) d.n.z.h.D.S.z.m.z.g.M.j.h.j.h.M.N.N.g.f.b.b.b.s.rXuXiXiXCX",
"GXKXPXLXPXHXAXVX1X/ R f 6 s 8.r.e.q.s 0 W ) z.l.j.D.D.N.M.M.h.m.m.h.h.m.m.M.V.m.n.f.b.V.f.d.3XtXeXMX",
"CXGXKXLXCXuX3Xs.^ P q 4 [ w.r.c.i.c.<Xp 6 T _ l.z.j.A.F.A.m.M.h.V.m.n.n.j.m.n.f.n.d.g.n.b.b.j.iXrXuX",
"FXKXFXCXuX4XR U r 6 e 3.r.e.o.p s s  .a.y 5 T ) x.j.l.z.A.Z.m.V.S.N.Z.Z.V.g.` ) s.h.g.k.f.g.V.N.4XmX",
"DXKXJXMXb.R K q 4 C e.w.q.c.[   &   4 $X:Xn 4 T _ j.j._ l.A.A.D.S.M.A.m.A.Z.d.' s.s.f.f.g.j.A.F.@XKX",
"KXLXNX8.R K 0 a >.i.r.p.q.c.|   .   c gX+Xu.n 4 T _ D.] _ S.D.S.S.A.D.D.A.A.Z.h.d.d.j.m.M.g.f.N.6XGX",
"PXMX9.R J 0 v fXqXw.;.e.e.u.Z . < & v 6XP P kX@.5 W ] G.l.d.5XG.F.S.' l.A.D.S.N.j.s.Z.Z.D.Z 4 yXLXJX",
"ZX1X( K 4 p ,X8Xy.e.w.i.+X+X<.t.1.+. X XQ q.hX6X4 0 W ] F.z.d.S.S.5XG.' ' A.m.S.A.G.G.F.7.X BXAXAXAX",
"/.>.C 4Xq.i.e.w.q.q.e.u.u.,Xt.0.$.@X<XxXkXkXjX#X8.y 7 T l.F.l.l.z.S.x.l.j.S.G.D.5XA.d.A o v !.*X].].",
",.Q.BXLX6Xr.w.7.+.q.e.u.u.b 4 ; * < i #X;XXXXXe.8.w.y q T l.G.d.z.d.z.F.5XF.x.G.F.} . . c t.).^.^.^.",
"*X^.lXPX6Xi.u.;.+.1.i.>Xb : = ; - = % 4 p.c.6.8.w.w.7.y q T ] l.z.F.F.G.F.z./ / ~ O X c | ~.'.*X*X/.",
"].^.mXLX7X,X).<.q.w.+Xy., * 2 2 > ; * % i 1Xr.q.q.7.8.q.a q T l.l.F.S.x.z.e < , u a [ v #.1./.=X/./.",
"*X(.nXFX7X#X~.+Xy.p.=Xb - 2 2 1 2 - > ;   0.tXp.q.8.o.&XhXc 6 T _ l.x.F.Z X + + u X.:.&.:.(.'.'././.",
"*X(.nXJX7Xu.1.1.u.].$X5 - 2 2 1 - 1 : * % i 4XB.e.A ]. Xe.$.c 4 f R ! V X u p a s E.{.}.>._.(.^.)./.",
"=./.AXHX=X>X>.>.7.-X3.2 > 2 2 1 1 1 * - % < <XB.a.q.oX;.f ~ `.+ X 4 u X p ..[ [ [ E.#.%.~.:./.(.^.*.",
"9X9XFXPX%X$X~.<.q.e.Q - 2 2 > ; * * * * % & i.B.c.i.XX$XQ q.&X`.@.u o u b o.....#.E.%.%.!.:.nXZXnXvX",
"PXPXLXFX#Xu.>.).$.u.Q 1 * 2 * = * & * * = & q.3Xa.i. XfXXXfX#X5.X.v p v |  .$.;.+._.E.!.-.:.IXPXPXPX",
"{..X;X.XXX].>.-.$.p.Q 2 > * * > * 2 > - * & $.1X@X@Xu.].XX6X$.w r &.[ C | ..$.o.$.:.E.&.-.!.|.[.[.}.",
"U.@ @ $ !.:X+X-.:.u.z > > 3 8 8 7 8 5 3 * * o.1Xc.<X@Xy.>.e.o.V $.&.b ..$. .X.#.#.X.%.%.:.:.m m m m ",
"Y.Y.Y.m X. X].<.~.v.j > 5 h z j k h h 7 5 > o.,X@X@Xi.u.1.q.$.#X.XO.[ `._.-.o.#. .X.#.>.#.!.K.Y.L.L.",
"Y.T.K.I.E.gX`.-.~.e.h 3 z z x d k h z x 7 2 o.,Xp.e.i.p.y.y.o.).~.C &._.!.E. .o.X.#.X.:.%._.T.Y.K.T.",
"L.K.P.m _.|.:.>.~.e.j h K K k j h z z j 7 3 $.,X+X+X+Xp.+X).$.} 3. .E.} b %.o.o...#.#.E.}.(.L.L.L.K.",
"H.H.m @ %.;.-.>.`.q.d h K K k K K k k j x 7 X.+X+Xu.p.+X>.+X;.3.3.{ %.$.| &.X.O.#.#.$.%.}.|.H.@ m I.",
"}.W.W.T.#.u.<.#.E.q.k d G K K K K g f d k 7 $.+X+Xu.u.p.u.+X;.4.o.b %.oX&.} &.X... .-.@.~.$X X.X{.oX",
"PXPXLXKX%.].~.%.:.+.l g I K K I H g g l l 6  .+Xu.t.y.u.u.>.o.3.} { | %... .o. . .X.E.`.8.6.CXLXPXPX",
"MXMXmXDX-.).>.$.%.;.g l g K Y G H H H g l 7 | ~.y.t.t.y.>.+X..3.6.} ..C o.X.} ..| &.~.;.S A uXMXuXMX",
"yX3X3XcX:.'.-.-.%.7.g g I U U U G H g H g 7 | $X>.;.>.t.y.u.$.3.o.{ X.o.o.}  .#.$.} A Q ~ +.aX3XtXrX",
"uXtX2XsXo.%XoX!.!.;.H x g I U Y G G H H H 7 | $Xy.;.;.t.y.+X$.5.;.Z } X.O.%._.o.A ~ N V +.eXwXtXtXeX",
"yXeX2XyXr 6.+.`._.+X! k g I I Y U U G G G d [ ~.y.t.;.y.t.y.$.6.0. . .} O.OX&X3.t V A u.MXmXrXuXtXrX",
"mXmXAXcXw f F w Z 5.^ E E Y Y I U Y U U G d | :.0.y.y.y.t.t.$.3.3.{ { } &.%.r.S t V #XLXFXPXZXCXVXVX",
"GXJXPXcXV f r q t q H R R / R T R E R U I d ...X>.y.q.t.~.+Xo.3.3. .} | &.O.~ V C 0XPXPXIXFXLXIXFXLX",
"PXSX;X_.[ S B B r 0 t r r F L U E E ^ ` ^ g s ].jX Xu.u.u.p.7.3.} ..X.o.4.~ S a >XqX9X9XpX0XnXFXDXGX",
"zXW.XXlXxXqXe.t N N t t e e z q q F R W ' U f { fX X~.i.,X#X;.4.o...q.6.~ Q &.=.(.Q.Q.*.*.=.6XFXDXFX",
"!.zXPXPXPXLXJXLXqXX.C 9 e t r 0 5 q f w f J w w t V 3.5.w.q.4.7.o.4.Q N N $XlX*.*X*X*X*X(.(.9XLXFXLX",
"zXLXJXPXLXlXkXxXHXAXbXDXAX#Xu 9 e r q 9 e r r q w w j J L L J J Q V V N $XLXlX,.*X^././.].(.0XPXLXkX",
"PXPXBX:X|.|.7X;X:XLXPXLXFXLXR.@ @ v o 9 e r t t r z w w w P F F w 0 9 8XHXLX9X(.-X/.).].^.,.pXPXBX|.",
"xXXXW.;XzXPXIXLXkX XLXDXJXKX[.m K.Y.K.K.# + o 4 t ~ f q q j J N V s MXIXGXJX9X*./.^./.'.^.,.pXIXnXXX",
"kXkXCXJXLXHXKXPXvX|.PXLXFXLX}.m Y.P.Y.Y.L.L.@.M $ + 9 N J J r f s GXGXDXFXFX7X=.,.^.(.(./.,.pXPXJXzX",
"PXLXFXJXJXFXHXPXxX XJXCXCXJX.X@ L.L.L.L.L.L.L.L.H.W.LXcX+Xa ~.6XSXKXJXDXFXJXvX=X:X].-X=X/./.nXLXDXLX",
"GXVXVXMXMXMXdXmX_.%XsXwXmXPX.X@ L.Y.L.L.L.L.L.L.m W.JXFXDXJXJXlX*.6XJXFXFXKXJXJXJXFXDXFXKXCXDXGXDXGX"
};
