/* XPM */
static char *_3189_a49eebbec7a706108b78e33385d29ed93b881c348bfe7254ce9fd651e1e14dc7[] = {
/* columns rows colors chars-per-pixel */
"50 50 249 2 ",
"   c #2C491A",
".  c #324B1C",
"X  c #2E541A",
"o  c #36581C",
"O  c #3B631E",
"+  c #3A6C1C",
"@  c #3A6117",
"#  c #3D731C",
"$  c #3D7015",
"%  c #3C5C24",
"&  c #3A5424",
"*  c #394C24",
"=  c #3E6323",
"-  c #3D6B22",
";  c #376C20",
":  c #40681E",
">  c #45781E",
",  c #425C24",
"<  c #425C2A",
"1  c #47572A",
"2  c #555B32",
"3  c #426423",
"4  c #436A24",
"5  c #4A6B26",
"6  c #45642A",
"7  c #4B642C",
"8  c #446A29",
"9  c #4B6C2B",
"0  c #4A6726",
"q  c #546E2E",
"w  c #457324",
"e  c #4A7325",
"r  c #457B23",
"t  c #4C7C24",
"y  c #45722B",
"u  c #4C742A",
"i  c #4C7C2A",
"p  c #467C29",
"a  c #527E25",
"s  c #53752C",
"d  c #537C2C",
"f  c #5A7D2D",
"g  c #527422",
"h  c #4C6C32",
"j  c #4B6431",
"k  c #546C32",
"l  c #596B38",
"z  c #4D7232",
"x  c #4E7B31",
"c  c #537432",
"v  c #597534",
"b  c #547B32",
"n  c #5A7C32",
"m  c #5C7D3A",
"M  c #5B743B",
"N  c #627E36",
"B  c #61743C",
"V  c #627D3C",
"C  c #677839",
"Z  c #697B43",
"A  c #4A821E",
"S  c #4A881F",
"D  c #548E1D",
"F  c #4D8325",
"G  c #4C8B23",
"H  c #4D832A",
"J  c #498425",
"K  c #538425",
"L  c #538C25",
"P  c #5A8B26",
"I  c #54842C",
"U  c #5A842E",
"Y  c #548B2C",
"T  c #5B8B2D",
"R  c #5A8427",
"E  c #569426",
"W  c #55922A",
"Q  c #5C932C",
"!  c #5C9A2D",
"~  c #5B9925",
"^  c #558332",
"/  c #5B8433",
"(  c #568A31",
")  c #5C8C33",
"_  c #5D833A",
"`  c #5E8C3A",
"'  c #578838",
"]  c #5D9334",
"[  c #5D9932",
"{  c #5E943A",
"}  c #569632",
"|  c #4D9122",
" . c #62852D",
".. c #608D2C",
"X. c #62942D",
"o. c #629B2C",
"O. c #609B26",
"+. c #638D34",
"@. c #698C34",
"#. c #63843B",
"$. c #6A863C",
"%. c #648B3B",
"&. c #6A8D3C",
"*. c #638435",
"=. c #728D3F",
"-. c #649434",
";. c #6B9535",
":. c #639A34",
">. c #6B9B34",
",. c #65923B",
"<. c #6B943B",
"1. c #649B39",
"2. c #6B9B3B",
"3. c #73943D",
"4. c #739C3D",
"5. c #759B3A",
"6. c #5DA22D",
"7. c #63A32C",
"8. c #6AA52E",
"9. c #65A233",
"0. c #6BA235",
"q. c #64A23B",
"w. c #6CA23B",
"e. c #6DAB3A",
"r. c #68A938",
"t. c #73A33C",
"y. c #75AC3C",
"u. c #7CAC3C",
"i. c #76A736",
"p. c #74B23C",
"a. c #7BB33B",
"s. c #75B133",
"d. c #6BB135",
"f. c #7DC13E",
"g. c #6A8543",
"h. c #638C42",
"j. c #6B8C42",
"k. c #6E8C4B",
"l. c #668345",
"z. c #738D44",
"x. c #73854A",
"c. c #748949",
"v. c #6C9442",
"b. c #6D9B42",
"n. c #6A9646",
"m. c #739443",
"M. c #7B9546",
"N. c #749B44",
"B. c #7A9B45",
"V. c #74944B",
"C. c #7C934D",
"Z. c #759C4A",
"A. c #7B9C4B",
"S. c #798C51",
"D. c #7C9B53",
"F. c #7A9752",
"G. c #6EA343",
"H. c #6FAC42",
"J. c #74A343",
"K. c #7AA344",
"L. c #75AC44",
"P. c #7BAB45",
"I. c #75A449",
"U. c #7BA34B",
"Y. c #7DAB4B",
"T. c #75AD49",
"R. c #7DB44B",
"E. c #7DB448",
"W. c #7CA451",
"Q. c #7DAB52",
"!. c #77A355",
"~. c #7D9F60",
"^. c #82993B",
"/. c #89AD3E",
"(. c #839C4D",
"). c #82964B",
"_. c #858F55",
"`. c #829C53",
"'. c #8B9D54",
"]. c #849858",
"[. c #909F54",
"{. c #848F4C",
"}. c #82A445",
"|. c #82A44C",
" X c #84AB4C",
".X c #86A749",
"XX c #82B345",
"oX c #84B34B",
"OX c #8BB44C",
"+X c #89BA48",
"@X c #91B74D",
"#X c #84A453",
"$X c #8AA453",
"%X c #83AA52",
"&X c #8AAB54",
"*X c #84A45B",
"=X c #8BA55B",
"-X c #86AA5A",
";X c #8BAB5A",
":X c #93AB54",
">X c #94AD5A",
",X c #95A559",
"<X c #84B254",
"1X c #8BB354",
"2X c #8DBB55",
"3X c #8CB45C",
"4X c #8DBC5B",
"5X c #86B259",
"6X c #92B954",
"7X c #93B35B",
"8X c #99B45D",
"9X c #95BC5C",
"0X c #96B859",
"qX c #8F9A65",
"wX c #8AA766",
"eX c #9CAD62",
"rX c #94A967",
"tX c #8EB268",
"yX c #95B262",
"uX c #9BB364",
"iX c #94BB61",
"pX c #9BBC6B",
"aX c #98B769",
"sX c #9BB875",
"dX c #96A97A",
"fX c #A6B967",
"gX c #A7BC78",
"hX c #B6BD72",
"jX c #A1A365",
"kX c #A8B659",
"lX c #8EC356",
"zX c #97C458",
"xX c #89C245",
"cX c #A6C55F",
"vX c #9CC367",
"bX c #94C36B",
"nX c #A6C86A",
"mX c #A8C879",
"MX c #ADD574",
"NX c #B4CA74",
"BX c #A6BA87",
"VX c #B1BF93",
"CX c #ADC889",
"ZX c #B2C988",
"AX c #B8D28F",
"SX c #BCD0A2",
"DX c #C3D49A",
"FX c #C1D9A9",
"GX c #D9E9BE",
/* pixels */
"y + Z.6Xt.u.7X4Xd.q.yXzXG.j.P -X#XfX].k.0 R / #.uXDXwX#X5XW j./ } 1.;.) >.).i t I -.u ) ) I S.l.6 e ",
"X : u T P.4.zXL.F Q.CXMXJ.fXh./ *.J.yX7Xn.t ..N z.W.].j.-XI v.s I J.w.4.|.) G F J #._ _ v.Z B $.Z.v.",
". >   7 G.L tXwX#X+.R 4.J.}.gXZ.Q |.Z.,.wX&.iXg.s c V.y T 9.T I e e.F y.fXU.c 9 4 2.e * M.>XK.XXy.i ",
"2.z m ' q.I !.G.c._.wX-.P.0.Y.Z.a 1XbXL D >.3X*Xo u R.R._ A -.2.E A r T U m %./ R 0.2.-.U.(.W.T.P m ",
"2.0 n -.H 8 +.Z.V rXsXi 1X+XN...~ >.@.P P 5.(.=.w A d.<XR.9.o.;.+.i 1.:.<.k.c ,.f [ 2.XXN.Z.t.}.N.l.",
",.e.] >X` ^ ) _ . %.;Xt..X Xo.@X~ R @ f 9.>.m.`.<.>.] &.^.oXw.>.,Xx.] ' -.N.m T J.u.4.2.e.o.&. X+XF ",
"w.u.4.1X|.%X%X'.l =XU.P.kX9X9X|.D D e e ) A.7XnX8X Xq.!.2.+.n ;Xm.B.s u m.&.A.pX2.o.o.#.G 8 k.t W 6.",
"7.:.B.9X<X2.,.'.(.K + @.OX3.].M. X X2.uXn ) `.A.X.oXY.H.{ T %.4. XQ e i N./ 0 K.0.t I 5.n X ;.s.r.-.",
"g.>.-X7 9 w $X=./.8X0 ).fX .f <.f CX!.(.C.b.1.P T n / D.2.J.r :.>.%X*XF 2.*.e ! E J b.XX>..X-.:.Q B.",
"m 3 4 w I ( uX:XfXhX$X=.fX+ `.S.a b.b d $.D.mXr & * c %.N.;XH.E Y &.`.I L o.t.>.W u b.+.:.7.%X Xr.y.",
"z.X > 9.[ K e m.'.5.*.t M.m 7 N g > Y <.b.] W.<.+.z Z.3X#Xb.1.o.U.a b ,.Y 6.XX>.uXqXm.) w.7.6X7XoXoX",
"D.B.t.:.s t 5 S.M 5 a 7 9 v.3 6 ; I T U s 3 n z.V._ V. Xn._ ) -.[ <.T.lXQ.p.6.0.).M.OXX.i n 1.: :X'.",
"B.3X6Xy , t U.fXNXm.t : q 5.I & 7 m } l 0 i = c ^ V.Z -.U F.hX<X[ e.P.J.OX@XA.#.(.}.T [ m & R.t u.eX",
"1X:.[ c @.] j.3.3.-.O.u.i.9.e.t 4.Q R.m ,.0.^ ) -.n.#X$XU.; =Xb.+.Q i.N.:X@.{ u #.>.,.T U ^ _ t.t m.",
"3 R i.V 3.e , / > Q i.T 0.9.W *.0.K i J K /.I = +.,.7X}.v.h.v. ./ T r.] ' q.Y c t :.>.%.V.% m u a t ",
"U ^ I @.`.f 7 @.k.%Xg T Q a w.<.W ! 9.b.u [ N.*.+ { ,.Q.J.L.rXv &.#XK.K.:.1.-.>./ K L +.h H W.qXg.: ",
"= m _ 1..X{.3.-.rXsXx.+.7.y.Y.+X>.u.lXP.>.8 f }.V.i y <.] q.Z.U.NXOX4.2.,.*XY.%XZ.t i .X#.<. Xm.n.*.",
"5X|.;XXXXXcX6X#XS.m.C.uXA.t.B.-.d { e.s.y.8X=X/ %.2.H w t :.V.nXyXm.0.#.6 / W.V O ` / B.#.M.'.;.I lX",
"%.J.3.;X$.5.8.>.=.fX5Xl.-X|.>.e ) f y. X'.kX8XT r W E W W ) _ Z.d J u < & / Y.-XtXh.o ( t.{.[.M.m J.",
":.I Z.%.U X.A ) <.pX8 k.sX=X`.3 u  XnXgXK -.d B.k p 4 ) U.#.% <.aXb.Q / ' k.,XsXBXc m aXK.).,XvX|.#X",
"%XZ.M.H J P G 5.%.{ Z.8XvX).,Xm & B Y.J.r *XM % 8 5 & %.<.9 b V =XpX+.B.k.b.].' ) b P.-XZXt.J.9X2Xc.",
"v.9 h K H 5 #.,.g.9 *X;X<.0.Z.#.5 j u ^ i G.#.u <.X.@.>.R 9 v &.) > #.v %.,.F.A.%X:.*XDXZ s L Q.nX2X",
"2XW o o v.U 5 B.&.2 / [ 4 1.t.}., 1   ,.b.f j.*.X.I -.+X4.e s ,.) % w 9 >.v.J.7X6XG.!.tXd j.) <.#XE.",
"nX[ i H m 4.% x.J.-.4 n I F -.0.u g.c fX;XJ.g.P.oXk.t.2.>.F ) f 5 p p ] b n.G.R.v.U.w.W <.v.,.) Z.FX",
"9Xw.@.b.v #.2.j.N.J.t +.N.^ %.9.I h.>.2X<.1XtXCXiXDX}.z.Y.<.w u 1 s p.m.= e y H x H i L I._ I y.w.W.",
"iX>.N.).^ 5.}.-.a 7 %.OX0X9 6 &.8 v.j.>XU.%X5.Y.zX&X2Xy.+.k w.T.h.t u.5.;.;.-Xm U w t J I.% d 9.d m.",
"`.wXY.j.B.x.M.-.u / 2.XX) $.n y.L.:.u yX7Xb.pXN.yX#Xe.P.j  .2.H.F I U } / m.(.,.! D i [ m.,.U d ,.`.",
"$X*XI Y I.U.2.<.s 1.O.0.*.<.v.-.! - w y.P.x.].4.[ H E X.<.X.Y Y r.t.-.i C.yX;.Q i i 4 ,.>.d % l Y J.",
"7XX.w w  XY.>.nXxX| e.~ a #X-.4 i m O 2.MXoX~.SXW ] ( ! F m.T W u./.! 0.fXhXoXj.j I , e 9.N N &.e :X",
"t.2.Q W.U.t.m.J.[ r.0.2.L.W.f O Q ^ u >.1X).n.' f p J J G m.zXK P e.d.L..XM.I V h w K -.t. XP.%X9X1X",
"3.pXe.P.p.L c ,.T.0.5.].b + O Q t F F 9 ).[.v.] 7 X 5 R.-.e.zX<.e / 2XaX..*.=Xc = K.@.w y.y.J.B.2.! ",
"$X,.,.m.w.H b +.XXa.5.R 5 8 > ~ T 9 $ e  XT R +.%.n q p.xX&.2.U.,.5.&XMX) w C.v.^ J.T c XXM.Z.>.9.i.",
"d I N.;.#.f 0 f -.y.6.W g.k *.@X2.j w e 5 X.: M.&XV N.+X%XaXT O c 5 s W 1.n [ _ m 8.lXGXiX>.oXv.# I ",
"& > > x  Xi.N.>.U.fX0.cXeX=.&. XI &.R 9 7 9 a dXrXf $.].Q.-X7Xc.& , k . x K.U.&XC.ZXiXY. X%Xe.P./ ; ",
"7   - 8 Y q.[ r.t.C.s U.'.fXt.t L v.>X&.f f :Xx.c. X;Xl.wXsXfX,X/ V u 1 & J.[.zXlXmXV.1XfX( Q *.z.%X",
"p ^ u x.b.,.-.y.[ H.= P a (./ w  .K $.$X[.$XmXrX).mXD.& oX}.M.1X@.@.. 1 s 3.nXJ.fXXXZ.N.Y.G ` S.m.a.",
"I V.<.-.Z.$XL.Q 6 ' T.,.<.+.u b n n i >.OXnXs.>.N 6XZ.Z.yX XT w.t.i.3 8 L.,.U.vX2.j.*X) [ ( i i [ :.",
"9X-.:.a.a vXJ.T h = c d ^ u 4 q + V.b.4X(.|.X.G  .<./ <.3Xv.- H Q y.X.y #./ yXpXZ.v o BXCXY w - -.2.",
"E.9.f.0.B.Z.f a %.n 8 h x.wX) $.T.&.*. X$.] ;.W y.m., C _ :.d F u a  .4 %.s ' Y XXzX{ %XG.8 O 3 e _ ",
"q.7.4.<.-./ ..t -Xj.@ <._.I.,.H.U.U.) J.I.H t I i J./ M.M p K z.n.O Z ^ ] J ( d <.nXI.> q.+.j t.H c ",
"T 9.K.f X > Q >.Y.%.T 5.m./ 0 I %.>.' &.B.H H w i $.3.J.>.s K K.-.f N.J.E Y V./ ,./ o c ;X,.m.m.4 f ",
"<. X9.&Xv t...R X.$X/ j.jX,X7 &.7X5Xm.C.M 4 b 4.-.9 #.@.K.m f zXI ^ <.) 0.@.u v.%XU.u V.qXaXN.oXt.@.",
"A.m.J.NX-X|._ w %.A.m.z.{.>X3XzXN.A.`.y % 8 y %.#.K.z.) t q t.s u ^ N.N.;.pXCXK.4.>.,.R *XqXu ] Y -.",
"6.Y.:XrXA.J.^ ) f @ W J.B.-X7XvXnX6X:.:.9.r w m 3 %.}.P 4 - L.z.u %XuXXXCX2X%XI.t.U.<.w.VXrXm.N.%.-X",
"Q (.:XgX-XK.%.I.`.c F.=X X-.I Y.vXzXsXbX:.2.t.N.f &.M.2.N.( T |.,. X3X7XyX1XuX( :. X:.j.6 Z.#X<.3X-.",
"0X8X XU i p F.mXAX4XJ.F.]./ h.[ B.iXSXCX;./ , J.>X@.wXvX6XU.0.J.T A.nXI.V.&.L.( $.aX] ) y k.S.-.K.ZX",
"<. Xt.T # i ) I *X:.t.d 3 f f F ^ e J.t.U 6 I K.2X;X9X2.-XK.H 2.U b.I.XXn wXsXt p W I &.=.i *XU.L.b.",
") P.pXL G.D.I I oXw.t t U 1 b r #.`.k.^ N.a U Z.vX2Xh.].,.H p ^ L x X.vX<Xh.b e % b f e <.J.I.2.9.:.",
"$.=X4X0.mXV.i w F >.P K.i u u h.].2.3.Y %.|.fXI J.K.s wXSXa e J ,.x e <.&.( 1.m v.Y H } ^ ) c - G K ",
"T P { A.|.iXI ..Y D oXMX_ M 1 gXCX+.W.dXX z.>X%.mXfXt.b.{ u 9 8 h m a.+.9 i ) n <.W / 4.n s v < - ) "
};
