/* XPM */
static char *_ab6793210624d51822fb67c966769dbut5HGn0yi2TN32J7[] = {
/* columns rows colors chars-per-pixel */
"50 50 230 2 ",
"   c None",
".  c #000000",
"X  c #02010C",
"o  c #181618",
"O  c #0D0712",
"+  c #36340D",
"@  c #020026",
"#  c #020038",
"$  c #1A1A39",
"%  c #323328",
"&  c #290F29",
"*  c #1F6F1F",
"=  c #3A7C00",
"-  c #575700",
";  c #49481A",
":  c #4C4B0D",
">  c #615E00",
",  c #5C6300",
"<  c #6D6D00",
"1  c #646200",
"2  c #736600",
"3  c #6C7400",
"4  c #737301",
"5  c #7C7C00",
"6  c #73730B",
"7  c #787600",
"8  c #6C6B15",
"9  c #7B7A17",
"0  c #7D7D23",
"q  c #666523",
"w  c #524F37",
"e  c #020047",
"r  c #03005D",
"t  c #020054",
"y  c #01006E",
"u  c #020062",
"i  c #000074",
"p  c #00007C",
"a  c #090877",
"s  c #1E0073",
"d  c #3C0072",
"f  c #35346A",
"g  c #37364D",
"h  c #441744",
"j  c #620055",
"k  c #6E004D",
"l  c #4C006C",
"z  c #58584A",
"x  c #5A5A5A",
"c  c #756F45",
"v  c #747570",
"b  c #664E72",
"n  c #9D0000",
"m  c #920000",
"M  c #950015",
"N  c #A50000",
"B  c #AC0000",
"V  c #AE000E",
"C  c #B30000",
"Z  c #BB0000",
"A  c #B7000A",
"S  c #A70014",
"D  c #940028",
"F  c #870037",
"G  c #AF3E23",
"H  c #B92B13",
"J  c #C30101",
"K  c #CC0101",
"L  c #C70B0B",
"P  c #D40000",
"I  c #DB0101",
"U  c #D60C08",
"Y  c #CD1313",
"T  c #D81717",
"R  c #E40000",
"E  c #EB0101",
"W  c #E70A0A",
"Q  c #F20304",
"!  c #FB0406",
"~  c #E71818",
"^  c #F61615",
"/  c #FF0014",
"(  c #F41A20",
")  c #D52323",
"_  c #DB3939",
"`  c #CD2525",
"'  c #E62525",
"]  c #F72525",
"[  c #E53A39",
"{  c #FC3337",
"}  c #857A00",
"|  c #8A6906",
" . c #8A7D33",
".. c #FF1B4A",
"X. c #FF3850",
"o. c #B44343",
"O. c #8B7575",
"+. c #DD4141",
"@. c #DF5656",
"#. c #EA4747",
"$. c #F44848",
"%. c #E85959",
"&. c #F75B5B",
"*. c #FD4150",
"=. c #FF4263",
"-. c #EA6969",
";. c #F66665",
":. c #F37A7A",
">. c #F77676",
",. c #EC7373",
"<. c #D7665A",
"1. c #008C01",
"2. c #178A08",
"3. c #009400",
"4. c #019C00",
"5. c #149400",
"6. c #00A400",
"7. c #00AC00",
"8. c #00B300",
"9. c #00BB00",
"0. c #0AB403",
"q. c #13AA00",
"w. c #2BA80F",
"e. c #2EB82E",
"r. c #0EA625",
"t. c #7E8100",
"y. c #45AC00",
"u. c #72B500",
"i. c #7F9E2A",
"p. c #69AC2A",
"a. c #00C400",
"s. c #00CB00",
"d. c #00D400",
"f. c #00DB00",
"g. c #0FDF00",
"h. c #1EDA1B",
"j. c #2DC500",
"k. c #02E202",
"l. c #00EC00",
"z. c #00FC01",
"x. c #15E313",
"c. c #05F513",
"v. c #14E60C",
"b. c #14FF2E",
"n. c #0AFF31",
"m. c #24E521",
"M. c #32C632",
"N. c #3E925B",
"B. c #419042",
"V. c #54AF54",
"C. c #73B373",
"Z. c #789A47",
"A. c #40C340",
"S. c #52E149",
"D. c #7CC57C",
"F. c #848400",
"G. c #8B8B00",
"H. c #8C8600",
"J. c #938200",
"K. c #949300",
"L. c #9C9C00",
"P. c #9B9909",
"I. c #8A891A",
"U. c #959516",
"Y. c #88A905",
"T. c #A4A400",
"R. c #AAA900",
"E. c #B9AA00",
"W. c #B1B100",
"Q. c #888829",
"!. c #8E8F3B",
"~. c #8B8B33",
"^. c #97982C",
"/. c #A69431",
"(. c #C8AA00",
"). c #C8C700",
"_. c #D4C400",
"`. c #98974A",
"'. c #9C9C53",
"]. c #808040",
"[. c #A1A15C",
"{. c #8A8F63",
"}. c #B4A073",
"|. c #C18A5F",
" X c #000084",
".X c #00008C",
"XX c #090884",
"oX c #000093",
"OX c #00009C",
"+X c #150086",
"@X c #340088",
"#X c #280088",
"$X c #202084",
"%X c #0000A3",
"&X c #0000AB",
"*X c #0C00AC",
"=X c #1500AB",
"-X c #0000B5",
";X c #0000BD",
":X c #78738F",
">X c #0000C5",
",X c #0000CA",
"<X c #0000D5",
"1X c #0000E6",
"2X c #B57EB5",
"3X c #729898",
"4X c #868686",
"5X c #919192",
"6X c #B68F8F",
"7X c #86B486",
"8X c #98A697",
"9X c #8D89AC",
"0X c #A691B1",
"qX c #84ADAE",
"wX c #A9A9AA",
"eX c #B6B5B5",
"rX c #B0B0AE",
"tX c #F68383",
"yX c #C79999",
"uX c #93D598",
"iX c #D3AFD3",
"pX c #A1CACA",
"aX c #D9D9D8",
"sX c #CBD1D2",
"dX c #FCD7FC",
"fX c #F4C5F4",
"gX c #D4F8F8",
"hX c #FFE5FF",
"jX c #FEFEFE",
"kX c #F5F4F6",
/* pixels */
"                                                                                                    ",
"                                                                                                    ",
"                                        S.h.d.d.d.s.s.a.a.0.                                        ",
"                                  |.c.k.f.f.f.d.d.s.s.a.a.a.9.8.0.                                  ",
"                              -.E Q p.n.m.x.f.f.d.d.s.s.a.a.9.9.8.8.q.                              ",
"                            ~ R [ *.X.S.b.x.k.f.f.d.d.s.s.a.9.9.8.8.7.7.                            ",
"                          R W $.&.;.=.<.b.c.k.k.f.d.d.s.s.a.a.9.8.8.7.6.4.                          ",
"                        I ~ $.;.>.>.;...i.c.k.k.f.f.d.s.s.a.a.9.9.8.7.6.6.6.                        ",
"                      I ' $.;.>.:.>.&.{ ^ v.z.k.f.f.d.d.s.a.a.9.9.8.7.6.6.6.4.                      ",
"                    P ~ #.;.:.tX:.;.$.{ / | z.k.k.f.d.d.s.a.a.9.9.8.7.6.6.6.6.4.                    ",
"                  T I #.&.:.tXtX>.&.{ ^ ! Q g.z.k.f.d.d.s.s.a.9.9.8.8.7.6.6.4.4.4.                  ",
"                -.K [ %.,.tXtX>.&.{ ] ^ Q ! 4 z.f.f.d.d.s.s.a.9.9.8.8.6.6.6.4.3.4.5.                ",
"                K ) #.-.:.tX>.&.$.] ^ Q E ! U l.l.f.d.d.s.s.a.9.9.8.8.6.6.6.4.3.3.1.                ",
"              @.K _ %.,.:.,.&.$.] ^ Q Q E E ! = z.f.f.d.s.s.a.9.9.8.7.6.4.4.4.3.3.3.5.              ",
"              K T +.-.,.-.%.#.' ~ Q E E E R Q |.uXD.A.d.s.a.a.9.9.7.6.V.7X7XV.3.3.1.1.              ",
"              Z ) +.%.%.%.[ ' ~ W E E E R ' aXjXdXdXfX7Xs.s.9.9.8.0.sXjXhXhXdXrX2.1.1.              ",
"            ` J ) _ +.[ [ ' ~ W R R R R W aXjXjXjXwXv 2XC.s.9.9.7.eXjXjXjXeXv 0X8X1.2.H.            ",
"            Z J Y ) ) ) T U I I I R R R <.gXkXjXv . . . b M.a.8.e.dXkXjX5X. . . b Z.H.J.            ",
"            Z J L Y Y Y U P I I I I I I yXgXjXrX. . . . O B.d.8.C.dXkXsX. . . . . c L.t.            ",
"            Z Z J J L K K P P P P P I P 6XsXkXx . . . . . * f.8.7XaXkX4X. . . . . % P.5 F.          ",
"          J C Z Z J J J K K K P P P P P 6XpXaXx . . . . X * d.8.C.iXaX4X. . . . . ; L.5 }           ",
"          C C Z Z Z J J J K K K K K K I o.pXeXwXX . . . & e.9.8.r.0XrXeXo . . . @ 0 G.5 5           ",
"          C C C Z Z Z J J J J K K K K K K 4XqXrX4X% o h B.s.7.7.w.{.9XwX5X% o $ c P.} 5 7           ",
"          C B C C Z Z Z J J J J J J J J K L O.3XqX5X:XN.a.0.y.Y.E.R.{.:X9X9X:X{.U.F.5 4 }           ",
"          Z N B C C C Z Z Z Z J J J J J Z K K H G G w.j.u.R.(.(.T.T.L.Q.].c Q.G.H.} 5 3 }           ",
"          B N B B C C C Z Z Z Z Z Z K P I I J S k d Y._.(.E.R.T.T.L.L.L.K.K.K.H.F.5 7 3 7           ",
"          m B N B B B C C C J P I K A D k l =X>X<X1X .).R.T.T.T.L.L.K.K.K.G.H.F.F.5 7 } ,           ",
"          B n N N N B J K J V F l @X*X,X<X<X>X-X&X,Xz ).T.T.T.L.L.K.K.K.G.H.F.F.5 7 4 < 7           ",
"          B m n C J Z D j @X*X>X<X,X;X-X&X&X&X&X&X>Xf ).T.T.L.L.L.K.K.G.H.F.F.5 5 7 4 , }           ",
"          n B Z M j #X-X,X>X-X&X&X&X&X&X&X&X&X&X&X;X$XW.T.L.L.K.K.K.G.G.F.F.F.5 7 4 4 3 2           ",
"          n M l %X;X-X%X%X%X%X%X%X&X%X&X&X%X%X%X%X&XOXL.T.L.K.K.K.G.G.H.F.F.5 7 4 4 < 4 ,           ",
"          j OX-X%XOXOXOXOX%X%X%X%X%X%X%X%X%X%X%X%X%X&X0 W.K.K.K.G.H.H.F.F.5 5 4 4 < < , J.          ",
"           X%X.XoXoXoXOXOXOXOXOXOXOXOXOXOXOXOXOXOXOX-Xz W.K.G.G.H.H.F.F.5 7 7 4 4 < < < <           ",
"          +X.X.X.XoXoXoXoXoXOXOXOXOXOXOXOXOXOXOXoXoX&Xf T.G.G.H.F.F.F.5 7 7 4 4 < < < 3 2           ",
"          s .X.X.X.X.XoXoXoXoXoXoXoXoXoXoXoXoXoXoXoXOXXXG.K.H.F.F.F.5 5 7 4 4 < 4 6 4 - /.          ",
"            .X X X.X.X.X.X.XoXoXoXoXoXoXoXoXoXoX.X.X.XOXq L.F.F.t.5 5 7 4 4 4 6 9 9 9 - }.          ",
"            p  X X X X.X.X.X.X.X.XOX%XOX.X.X.X.X.X.X X%Xg L.F.K.G.7 4 4 4 4 6 0 ~.~.Q.-             ",
"             Xp p  X X X X X.X XOXr    XOX X.X X X X X.Xa K.F.  - H.4 4 < 6 0 !.`.`.~.1             ",
"             Xp p p p  X X X XOXy       oX.X X X X X Xp oXw       > F.< 4 9 !.'.[.`.9 9             ",
"            e oXi p p p p p .X.X          OX Xp p p p p oX          7 4 6 Q.`.[.[.`.5 `.            ",
"              p p i i p p p oX#           r oXp p p i .Xr           + G.9 !.'.[.`.Q.I.              ",
"                .Xi i i i  Xi             X  Xp i i p  XX             6 I.!.'.`.~.U.;               ",
"                #  Xp y y .X@   . . . . . . # .Xi y .X# . . . . . .   + U.~.!.^.U.;                 ",
"                  @ u p oXr . . . . . . . . . t .X.Xt . . . . . . . . X 8 U.I.8 +                   ",
"                      @ # .   . . . . . . . . . e e . . . . . . . . .   O : +                       ",
"                                                                                                    ",
"                                                                                                    ",
"                                                                                                    ",
"                                                                                                    ",
"                                                                                                    "
};
