/* XPM */
static char *_3b091f908a14780d79955f814322f92AaC7zpUikxWZIRoE[] = {
/* columns rows colors chars-per-pixel */
"50 50 155 2 ",
"   c None",
".  c #000000",
"X  c #38330F",
"o  c #4B461C",
"O  c #514414",
"+  c #554814",
"@  c #61521F",
"#  c #7A6D1B",
"$  c #A77F00",
"%  c #AE7B00",
"&  c #AE8C00",
"*  c #B38700",
"=  c #B28D00",
"-  c #B98E00",
";  c #B59100",
":  c #BB9500",
">  c #B39A00",
",  c #BE9900",
"<  c #BCA500",
"1  c #8E822B",
"2  c #A58C21",
"3  c #B49826",
"4  c #B89C27",
"5  c #C29600",
"6  c #C39C00",
"7  c #CA9D00",
"8  c #C6A200",
"9  c #CBA300",
"0  c #CEAF00",
"q  c #D1A700",
"w  c #D5AA00",
"e  c #DAAE00",
"r  c #CDB700",
"t  c #D1B000",
"y  c #DDB100",
"u  c #D6B800",
"i  c #DCBC00",
"p  c #E2A500",
"a  c #E1AB00",
"s  c #E3B500",
"d  c #E6B900",
"f  c #EBBC00",
"g  c #F1BE00",
"h  c #FEB800",
"j  c #FFBF15",
"k  c #D4B32A",
"l  c #C0A732",
"z  c #E1C500",
"x  c #EFC000",
"c  c #F4C300",
"v  c #F9C601",
"b  c #F7C900",
"n  c #FECC02",
"m  c #FFCE0C",
"M  c #F6D100",
"N  c #FFD304",
"B  c #FFDC00",
"V  c #FFD20C",
"C  c #FFDA0B",
"Z  c #FFCE12",
"A  c #FFCD1C",
"S  c #FFD014",
"D  c #FFD915",
"F  c #FFD21C",
"G  c #FFD919",
"H  c #FFFF0F",
"J  c #FFFF18",
"K  c #FFCE24",
"L  c #FFCF28",
"P  c #FFD324",
"I  c #FFDC22",
"U  c #FFD52B",
"Y  c #FFDB2B",
"T  c #FFC43F",
"R  c #FFD633",
"E  c #FFDA33",
"W  c #FFD739",
"Q  c #FFD83C",
"!  c #FFE133",
"~  c #FFED32",
"^  c #FFE63C",
"/  c #FFF637",
"(  c #FFF937",
")  c #FFF639",
"_  c #FFF93C",
"`  c #BBA440",
"'  c #CDB449",
"]  c #EFCB46",
"[  c #E7C94B",
"{  c #EFDB40",
"}  c #FFD645",
"|  c #FFDA43",
" . c #F1D04D",
".. c #FFD74D",
"X. c #FFDC4D",
"o. c #FFDC4E",
"O. c #FFDC4F",
"+. c #FFDC4B",
"@. c #FFDB50",
"#. c #FFDC50",
"$. c #FFDD51",
"%. c #FFDD53",
"&. c #FFDD52",
"*. c #FFDD54",
"=. c #FFDD55",
"-. c #FFDE57",
";. c #FFDD53",
":. c #FFDE58",
">. c #FFDE59",
",. c #FFDE5B",
"<. c #FFDF5C",
"1. c #FFDF5D",
"2. c #FFDF5F",
"3. c #FFDF5E",
"4. c #FFDF5B",
"5. c #FFEE46",
"6. c #FFF040",
"7. c #FFF947",
"8. c #FFFC44",
"9. c #FFEE53",
"0. c #FFE35B",
"q. c #F9E85F",
"w. c #FFEE59",
"e. c #FFFC50",
"r. c #FFFC50",
"t. c #FFF15C",
"y. c #FFFF58",
"u. c #FFDE65",
"i. c #FFDE63",
"p. c #FFDE76",
"a. c #FFE061",
"s. c #FFE060",
"d. c #FFE062",
"f. c #FFE165",
"g. c #FFE167",
"h. c #FFE166",
"j. c #FFE565",
"k. c #FFE064",
"l. c #FFEF64",
"z. c #FFE169",
"x. c #FFE26A",
"c. c #FFE26C",
"v. c #FFE36F",
"b. c #FFE26C",
"n. c #FFF667",
"m. c #FFFF67",
"M. c #FFFF66",
"N. c #FFF469",
"B. c #FFFB6A",
"V. c #FFE370",
"C. c #FFE373",
"Z. c #FFE374",
"A. c #FFE374",
"S. c #FFE57B",
"D. c #FFE680",
/* pixels */
"                                        D G G P F F F F S C                                         ",
"                                  G P U U U P P P P P P P A A S V C                                 ",
"                            F P U U U U U U U U U U P P P P F F A Z m V                             ",
"                        S U U U U U U R R R R R R U U U U P P F F S S Z m n                         ",
"                      P U U U U R R W W W W W W W W R R U U P P F F S S m m N                       ",
"                  D U U U U R W W W W Q Q Q Q Q Q W W W R U U U P P F S S V m v B                   ",
"                F U P U U R W W Q Q | | | | | | | | Q W W R R U U P F F S Z m n n v                 ",
"              J P P U U R W W Q | | | +.+.+.+.+.| | | | 7.8._ ( U P P F F S m m n n c               ",
"            j P P U U R W W Q | | +.+.O.O.O.O.O.O.+.+.r.l + O 3 ) Y P P F S S m n n v c             ",
"          H I K P U R W W | | +.+.O.%.%.=.=.=.=.%.@.y.1 . . . . # / U P F F S m m n n g M           ",
"          A P P U U W W Q | +.O.%.=.=.,.,.,.,.,.=.t.[ . . . . . . k ~ P P F S Z m n n v c           ",
"        S A P P U R W Q | | +.%.=.,.<.<.d.d.d.<.<.m.` . . . . . . 2 ( U P F F S m n n v b s         ",
"      V A F P U U W W Q | +.O.=.,.<.d.g.g.g.g.g.d.B.' . . . . . . 4 ) U P F F S m m n n c           ",
"      Z F F P U R W W | | +.%.=.<.d.g.z.c.c.c.z.g.j.n.o . . . . X ^ E U P P F S m m n               ",
"    V Z F F P U R W Q | +.O.%.,.<.g.z.c.V.Z.V.V.c.u.N.q.@ . . O { 6.R U U P F A Z m                 ",
"    V Z F P P U R W Q | +.O.=.,.d.g.c.V.A.S.S.A.c.z.i.l.m. .] r.5.W W U U P K S                     ",
"    m S F P P U R W Q | +.O.=.,.d.g.c.Z.S.D.S.A.V.z.g.<.0.w.9.+.| W W U U L D                       ",
"  N m S F P P U R W Q | +.O.=.,.d.g.c.V.S.S.S.A.V.z.g.<.,.%.+.| | W W R Y                           ",
"  m m S F F P U R W Q | +.O.=.,.i.g.z.V.Z.A.A.V.c.g.d.<.=.%.+.| Q Q W                               ",
"  n m S F F P U R W Q | | O.%.,.<.d.g.z.c.c.c.c.z.g.<.,.=.O.+.| | E                                 ",
"B v m S F F P U U W W | | +.%.=.,.<.d.g.z.z.z.g.g.d.<.=.%.O.+.+.                                    ",
"n n m Z S F P P U R W Q | +.O.%.=.,.<.d.d.d.d.d.<.<.,.%.O.+.+.                                      ",
"n n m m S F F P U R W W | | +.O.%.=.,.,.<.<.<.<.,.=.%.O.+.                      u.} A b             ",
"n n m m S F F P U U R W Q | | +.O.%.%.=.=.,.,.=.=.%.O.                        p.S.%.P v a           ",
"v n n m Z S F P P U U W W Q | | +.+.O.%.%.%.%.%.O...                        T 0.0.| F n q           ",
"v n n m m S F F P P U R W W W | | | +.+.+.+.+.+.+.}                         Z ! R G N d ,           ",
"c v n n m Z S F F P U U R W W W Q | | | | | | | | | Q                         n V n g 9 *           ",
"v c n n m m S S F P P U U U R W W W Q Q | | | Q Q Q W W E                       z q 5 $             ",
"c c v n n m m S S F P P P U U R W W W W W W W W W W W R R E L                                       ",
"c f v n n n m m S F F F P P U U U R R R W W W R R R R U U P P I                                     ",
"  d c v n n n m m S S F F P P P U U U U U U U U U U U P P P F F F D                                 ",
"  d f c v n n n m m S S F F F P P P P P P U U U P P P P F F F S S Z m                               ",
"  f d g c v n n n m m Z S S F F F F P P P P P P P P F F F F S S m m m n N                           ",
"    s f c c v n n n m m m S S S S F F F F F F F F F F S S S Z m m n n n v c b                       ",
"    d s f c c v n n n n m m m Z S S S S S S S S S S S S m m m m n n n v v c f f                     ",
"    p y d f f c v v n n n n m m m m m Z Z Z Z Z m m m m m n n n n n v c c f d s a i                 ",
"      y s d d f c v v v n n n n n m m m m m m m m m n n n n n n v v c f f d s y e w w               ",
"      i w s s d f f c v v v n n n n n n n n n n n n n n n n v v c c f d d s y e w q 9 9 5           ",
"        u w s s d d f x c c v v v n n n n n n n n n v v v v c c f f d s s y e w q 9 9 7 7 >         ",
"          r e y s s d d f f c c c v v v v v v v v v c c c f f f d s s y y e w q 9 9 7 , <           ",
"          h i q e y s s d d d f f f g c c c c c c f f f f d d s s y y e w q 9 9 8 6 5 < %           ",
"            5 t w e e y s s s d d d d d d d d d d d d d s s s y y e w w q 9 9 7 6 5 > -             ",
"              b 9 q w e e y y s s s s s s s s s s s s s y y e e w q q 9 9 9 7 5 , ; =               ",
"                7 7 9 q w w e e e y y y y y y y y y e e e w w q q 9 9 9 7 6 , , = *                 ",
"                  0 7 9 9 q q q w w w w w w w w w w w w q q 9 9 9 9 7 6 5 , : ; 5                   ",
"                      6 7 9 9 9 9 q q q q q q q q q q 9 9 9 9 7 7 5 5 , : , &                       ",
"                        8 6 6 7 9 9 9 9 9 9 9 9 9 9 9 8 7 7 6 5 , , : ; ; *                         ",
"                            5 5 6 6 7 6 6 6 7 7 7 6 5 5 5 , , : ; ; = :                             ",
"                                : 5 , , , , , , , , , : : = * = : ;                                 ",
"                                        - : : : ; ; ; ; = 5                                         "
};
