/* XPM */
static char *_f609796e57947cbde10cf794c8b8537umvHO4a0qeHZEboW[] = {
/* columns rows colors chars-per-pixel */
"50 50 254 2 ",
"   c #020102",
".  c #050608",
"X  c #050917",
"o  c #071213",
"O  c #08162A",
"+  c #0B1A34",
"@  c #0B1E3B",
"#  c #051935",
"$  c #0C162E",
"%  c #0B213C",
"&  c #05203A",
"*  c #13253A",
"=  c #282F3A",
"-  c #061E44",
";  c #111F43",
":  c #042344",
">  c #0C2343",
",  c #05254B",
"<  c #0C254B",
"1  c #0C2A4C",
"2  c #0A2B48",
"3  c #132949",
"4  c #19334E",
"5  c #0C2B53",
"6  c #0B2D5A",
"7  c #052956",
"8  c #132C56",
"9  c #0B335C",
"0  c #0A355A",
"q  c #12345C",
"w  c #173659",
"e  c #0E314D",
"r  c #253C58",
"t  c #23354B",
"y  c #052C62",
"u  c #033464",
"i  c #0C3563",
"p  c #0C3965",
"a  c #0B3D6B",
"s  c #07386A",
"d  c #133C64",
"f  c #123D6B",
"g  c #153764",
"h  c #0B3E73",
"j  c #063A74",
"k  c #123D71",
"l  c #123B7E",
"z  c #122861",
"x  c #304153",
"c  c #17426D",
"v  c #0C4374",
"b  c #0E4974",
"n  c #0B447A",
"m  c #0D497C",
"M  c #034378",
"N  c #124373",
"B  c #13447A",
"V  c #144B7C",
"C  c #1A4C7C",
"Z  c #184775",
"A  c #18517B",
"S  c #0D4671",
"D  c #244468",
"F  c #295077",
"G  c #1D425F",
"H  c #5F6E71",
"J  c #6C7D79",
"K  c #6C7673",
"L  c #4B4D55",
"P  c #68827B",
"I  c #75887A",
"U  c #868F7B",
"Y  c #A89B79",
"T  c #9CB37E",
"R  c #A4B47B",
"E  c #ABB87C",
"W  c #A7AE7B",
"Q  c #0D3E80",
"!  c #0B4C84",
"~  c #094886",
"^  c #134C83",
"/  c #184B85",
"(  c #0D538A",
")  c #145285",
"_  c #1C5283",
"`  c #15548A",
"'  c #1B558B",
"]  c #165A8D",
"[  c #1B5B8E",
"{  c #1A5884",
"}  c #155B92",
"|  c #1B5C93",
" . c #185A97",
".. c #0A5398",
"X. c #225B8B",
"o. c #245789",
"O. c #225C93",
"+. c #255E9C",
"@. c #1C6295",
"#. c #1D639B",
"$. c #18649A",
"%. c #116A9C",
"&. c #226294",
"*. c #23649B",
"=. c #246B9E",
"-. c #2A6899",
";. c #2F6395",
":. c #1C68A4",
">. c #0F63A6",
",. c #246BA3",
"<. c #2B6DA3",
"1. c #2769A6",
"2. c #2572A5",
"3. c #2C71A5",
"4. c #2B73AB",
"5. c #2875AC",
"6. c #3374A4",
"7. c #3375AA",
"8. c #357AAC",
"9. c #3A79AA",
"0. c #2C7DB4",
"q. c #2976B3",
"w. c #357DB2",
"e. c #387AB4",
"r. c #386CA8",
"t. c #497596",
"y. c #6B7B84",
"u. c #4178B0",
"i. c #277BC1",
"p. c #3A83AC",
"a. c #3C83B5",
"s. c #3885B8",
"d. c #2C83BD",
"f. c #58839D",
"g. c #668487",
"h. c #7B8D89",
"j. c #7A928B",
"k. c #7B9393",
"l. c #718C99",
"z. c #458CBC",
"x. c #4688B8",
"c. c #4993BD",
"v. c #5995BA",
"b. c #548AAC",
"n. c #7298B0",
"m. c #3B89CA",
"M. c #488DC3",
"N. c #4A96C5",
"B. c #559AC5",
"V. c #5492CB",
"C. c #5DA4C8",
"Z. c #4FA1C9",
"A. c #69A6CA",
"S. c #75A5C5",
"D. c #71ABD4",
"F. c #659FC4",
"G. c #838C8A",
"H. c #85948D",
"J. c #90978F",
"K. c #97A59B",
"L. c #A6AB86",
"P. c #ACBB85",
"I. c #ADBC8B",
"U. c #A5B885",
"Y. c #B3BB8A",
"T. c #A7A897",
"R. c #ADB995",
"E. c #B4BB96",
"W. c #B0AE9F",
"Q. c #8799A5",
"!. c #98A6A7",
"~. c #97AEB7",
"^. c #93B3B4",
"/. c #A2AAA7",
"(. c #A7B8B4",
"). c #AEB3B1",
"_. c #C8B996",
"`. c #C4B9A3",
"'. c #ADC189",
"]. c #B5C390",
"[. c #B6C4B1",
"{. c #C9C49A",
"}. c #F6D49B",
"|. c #EDC89C",
" X c #C6CAB7",
".X c #D6D8BD",
"XX c #CECCAE",
"oX c #F5CEA6",
"OX c #EDD4A5",
"+X c #EDD4AB",
"@X c #E5D7A8",
"#X c #F4D3A6",
"$X c #F3D5AB",
"%X c #FBDAAC",
"&X c #F9D7A9",
"*X c #E9D6B6",
"=X c #F4DAB1",
"-X c #FCDCB3",
";X c #F7D8B6",
":X c #E8CEA9",
">X c #FDE1A9",
",X c #EBE4B8",
"<X c #FBE2BD",
"1X c #F8E4B8",
"2X c #FFF3BC",
"3X c #D8E2BD",
"4X c #8FB3C6",
"5X c #A7B9C5",
"6X c #C7BDCC",
"7X c #B9C6C9",
"8X c #AECAD4",
"9X c #BCD6E5",
"0X c #9EC1D4",
"qX c #C6C9C5",
"wX c #CCD4C9",
"eX c #D5D4C9",
"rX c #C8D8D5",
"tX c #D7D9D6",
"yX c #CFCBCA",
"uX c #E6DAC5",
"iX c #E6DDD7",
"pX c #FFD9C3",
"aX c #DBE3CD",
"sX c #ECE4CB",
"dX c #FAE8C8",
"fX c #FEF2C9",
"gX c #E5E7DA",
"hX c #F4EBD8",
"jX c #EBF2D5",
"kX c #FBF4DB",
"lX c #F6F4D9",
"zX c #D9DCE3",
"xX c #CCDDE4",
"cX c #CBE6EB",
"vX c #D9E6E4",
"bX c #DAECEF",
"nX c #EBEDEB",
"mX c #E5EAE6",
"MX c #F4EBE6",
"NX c #EAF4E7",
"BX c #F4F5E3",
"VX c #FCF4E3",
"CX c #FBFAE4",
"ZX c #F4F5EB",
"AX c #FCF6EC",
"SX c #F5FBEC",
"DX c #FDFCEC",
"FX c #F5F9E2",
"GX c #E9EEF2",
"HX c #EAF4F9",
"JX c #FDFDF2",
"KX c #FCFEFC",
"LX c #F7F7F5",
"PX c #F3EEF8",
/* pixels */
"sX,X$X#X=X%X1X!._.-X-X&XpXJX[.J U H.G.G.h.k.h.k.I J.CXDXJXJXXXE P.L.aXJXJXFXlXeX(.lXdXAX).hXlXhXJXBX",
".XdX=X$X%XdXL.L.dX>X.XXXdXKXrXJ j.k.j.j.h.h.h.I H K.JXJXAX XL.'.'.L.XXDXAXCXdXuX/.sXfXgXK.gXkXsXKXeX",
"hX-X;XOX1XW.L.=X<X_.J.Y @XJXgXP P g.g.P P h.h.H.g.!.JXJXXXW '.P.P.U.].CXAXVX,X,X(.uXfXFXK.NXkXdXKXwX",
"LX,X}.1X`.J.=X-X;X_.@X>XT.NXDXtX XyXeXeXgXgXmXnXvXgXDX3XR E '.P.P.P.Y.jXJXAXdXfX~.eXfXlXK.mXkXdXKX[.",
"LX1X}.%XW.XX>X#X&X>X2X_.K.HXAXJXLXKXJXSXDXDXDXCXkXCXNXR.R '.E.E.I.Y.W .XKXJXkXkX/..XdXkXK.mXkX<XKX).",
"JX-XoX-X{.`.1X2X<X*X/.U +XDXZXLXHXNXgXhX*X$X>X&XOXAXGXwXNXaX XE.R.I.R XXKXLXFXCXBXlXhXZXK.tXkX<XKX/.",
"JX<XoX-X=X_.Y.Y.R.T.T.@X-XhXLXnXGXGXnXLXhXuX:X:X{.MXzXG.qXKXnXNX XR.R XXJXZXBXAXDXDXDXJXwXgXVXdXJX X",
"DXdX=X#X;XdX{.{.{.+X1X-X*XlXPXHXnXSXKXKXHXmXT.K.wXqX      /.KXGXNX[.R {.FXDXCXJXBXhXsXsXVXVXAXJXAXJX",
"SXdXoX-X#X&X%X%X%X}.#XoX,XZXPXnXZXJX).5XKXnXuX;XKXH       = KXAXHXmXR ].VXDXFXkX#X$X+X+XOXOX1XfXJXSX",
"DXfX$XoX+X+X+X;X;X,X,X<XMXHXNXHXKXL     J KXtXwXKXH       t KXGXGXnXL.XXDXDXkX:X&X;X=X=X$X#X$X+XdXDX",
"AXVXsXsXlXlXCXVXSXSXKXAXKXPXPXKX!.      . yXyX).MXtX=   . qXKXnXGXMXgXFXJXCX1XoX&X$X$X=X%X&X#X#X$XkX",
"JXZXAXJXDXCXkXhX,XfXdXkXSXGXmXJX/.      . 7X7XQ.eXnXvX(.vXLXtXmXbXPXLXKXBXDXfX*X&X$X+X+X=X=X$X%XOXdX",
"lXVXAXCXkX;X-X-X;X&X*X7XzXJXmXmXHXL     G.HXy.F zXyXgXLXmXtXzXzXMXHXS.n.4X8XNXdXOX$X%X=X+X$X$X=X}.;X",
"lXBXDXkX*X<X|.Y J.~.A.d.v.GXMXtXgXMX).qXGX~.D , f.xXtXiXiXiXiXnXVX~.#.0.s.4.v.vX;X+X#X%X$X$X=X=X}.dX",
"AXZXJXdX=XXXJ./.qXC.M.4.%.t.6XtXyXtXzX7Xl.c u ~ y t.n.n.5X7X5X4Xn.m 4.B.c.s.q.D.hXuX:X$X%X$X$XoX$XVX",
"VXDXCX-X%XL.^.5XC.B.M.,.X.y / b.f.f.t.;.o.B n 3.r.y ~ >...=.:.>.>.e.z.a.x.v.V.B.wXhXdXOXOXOX#X&XkXJX",
"JXJXlX%X;X4XC.N.z.w.a.3.| ^ j $.:.,.,.2.s.s.2.M.7.*.3.} @.4.#.#.7.x.3.8.z.M.p.x.i.rXVXAXVXVXFXDXJXJX",
"NXDXVXuXD.Z.M.p.z.<.,.w.8.a.8.s.e.q.q.,.<.M.7.:.*.<.| =.w.7.7.w.7.3.a.z.M.z.z.7.a.v.cXlXhXlXjXjXjXjX",
"E.E.NX4XV.0.e.8.s.z.*.=.3.a.B.e.9.0.2.7.' =.7.*.&.] 3.8.` @.w.7.3.<.| *.<.w.x.w.9.M.v.^.E.L.R.P.Y.E.",
"E T gXcXp.q.4.| -.8.` ) 7.@.2.7.<.3.@.) n [ *.! | 7.*.| *.3.,.<.a.8.] #.a.a.x.M.z.M.V.v.^.Y.P.I.P.P.",
"'.P.aXbXs.<.4.[ B | #.! O.&.@.<.} ^ @.] k j | ( &.O.| | 3.s.,.#.4.2.,.8.8.w.w.s.N.x.c.m.S.R.Y.P.I.I.",
"I.E 7XC.w.&...*.' ( #.` u Z b { | m s A { h V ] n n ^ ^ *.<.} #.@.@.} #.=.w.#.4.8.a.9.e.V.^.R.].I.I.",
"R.R eXD.c.%./ u b V b V p d 6 f ) _ 7 - Z X.h X.C 7 C v v O.` ^ ^ ^ [ [ *.` #.w.<.a.*.&.m.F.].E.I.Y.",
"'.U.gXgXB.8.*.a % # - g 0 i i k j i g , q a v h c f Z a u N o._ B B ^ ^ M ! z.7.q.7.) | 2.B.^.I.P.Y.",
"W E jXcXz.x.*.w.| 7 X X X X @ , 3 # 1 q , & < 8 h N V ^ s s o.` 0 v ` ^ V =.4.q.2.-.,.<.3.C.[.E U.T ",
" X.XNXb.c.4.u.s.C j m &     . .       . .   X X > 5 6 < @ # % O @ 0 i k a u p i d y M +.s.D.8XlXsXaX",
"KXAXcXB.B.7.C.-.7 *.$. .A 0 1 - o . .             . .           X O X O # % 5 q g Z ( ~ *.0.9XDXKXKX",
"(.).S.V.s.v.M.{ 6.;.{ |  .h 6 C f h N > X X o o .       . X @ 8 u g a s N [ ( ` ] =.q.#.&.5.(.T.!./.",
"y.K ^.N.s.x.O.8.p.` 8.{ a B ' Z f N h N d 5 q i 6 - @ > 1 8 f ~ b i ` ,. .:.4.) ~ :.8.<.0.A.P K P P ",
"G.H.k.v.c.[ +.N.<.6.m ^  .:.$.M } ` *.2.' 7 i B b ' ^ s k V ) ) C v f <.4.*.1. .^ ` -.<.} v.H.G.j.j.",
"H.I j.b.6.7.6.<.1.&.p ;. .=.C C ` | s.#.v p B ` 0 V [ V C _ V Z :.4.B V 6.O.N X.-.X.,.3.a ! Q.h.h.k.",
"k.G.G.t.M 6.' &.w.~ $.@.X.X.m O.k | <.k q f b b g i C [ ` v i Z $.<.<.} $.2.V A =.*.0.7.0 j v.j.j.j.",
"y.g.I ..u e , o.s.:. .! O.V ) $.B [ ) y f o.N 7 ^ f d _ m f i ' ) @.=.<.8.a.<.[ @.@.8.;.d j g.J P J ",
"!.!.!.t.y 7 1 i V &.4.4.<.) *.| X.} ( +.' [ A 5 C ) V C 6 A X._ ' | ] *.*.,.w.1. .` f i , ~ 4X).(./.",
"CXJXJXl.7 g 2 2 : 5 -.q.4.:.} ! / ` <.<.m ` <.) b  . .V 7 a 3.&.o.` ) O.| ! | *._ F 8 7 N #.v.ZXKXJX",
"dXhXqXj u f 8 : , i V ( #.*.V h s N Z v b ` 6.,.[  .:.' ' ' #.@.O.` *.' | <.| ` d 3 z V ` q.z.eX<XdX",
"+X@XeX9.( u 0 3 5 N p N | &._ m b v B | ` V N S ' v _ | | ] N / *.$.#.! [ x.-.u : + l ( ! :.2./.#X#X",
";X+Xc.<.V d C Q < # : 9 a | :.$.) ^ ' ` ^ h j ' / 6 , V :.h 7 p ,.5.=.| ' [ X.s 1 % Q ! M } :.4X%X#X",
"*X@Xd.` 7 0 s V 9 - 5 i i _ | v m s p N B s ' | p 7 0 B 2./ a Z } 8.=.O.^ h V k , 1 p ) ) +.q.^.#X#X",
"jXtX9.} ~ f d q 5 9 5 5 N N i a f f f a p d f i 0 ^ [ V ^ :.} h ^ ` ` V v v N p # w d M ( +.:.rXkXlX",
"AXcX5.' $...B i q 9 # > w 1 p f a 9 f m a d 0 m m B Z ( ~ C V N f v c V ^ N p < + 6 a 9 s  .D.MXDXJX",
"KX5Xq.=. . .B 6 5 1 + O # 5 a j i 6 6 f Z f 6 q f , B ` X.V p ' 6 b v ^ ' A q + O 1 i 8 s ( S.vXVXBX",
"tX!.%.#.*.} v 8 1 % @ + @ q c n p > O 7 V B u u 5 1 1 i -.' C a 0 C a ) ^ q 1 O ; 1 , ; e 7 s S.VXDX",
"T.rX0.$.*.| n 8 5 @ < * + : 1 d q : @ e p n V d , 5 * 5 ' V V 7 6 V a Z f , : + < # > 3 + 5 n B.DXDX",
"uX9Xs.4.( ^ h 5 @ + , > % , > q 9 9 8 & , p 9 : 6 q c q p N g c 9 N 9 i 6 > 7 w @ O 8 7 : , _ x.vXyX",
"JX0X:.@.! Z i , $ O # > > 1 5 9 5 e 8 < 3 > - q 6 9 p 5 , 9 q q 5 N g 9 1 > 7 p @ # > - e : y ! B.).",
"wXv.:.O.` d 1 > $ + @ > # # q N * - , + $ 1 q , q f q c 1 - 9 > 8 V Z 6 < > 9 i 1 % # ; @ 1 k M 9.).",
"7Xc.q.` ` 5 # % > , @ * O O q u % : : % * > 1 : % 6 v q + > w q 6 a a u q > 5 1 > @ @ @ > 5 u #.xXtX",
"9Xd.:.! f 6 & ; > > 1 @ $ > , > < O % < < + % < X % i e a % 9 m d ^ v 9 p 1 + > 1 5 > : 3 < j @.4XSX",
"xX0.-.X.D 4 t t 4 d r = * t 4 w w * * 4 8 3 * 3 * 4 r D D r r c c c o.F D r 4 t r D D D r D _ [ S.SX"
};
