/* XPM */
static char *efb0e58e6d734b35e15ba937ccb53c18qlbqsSie9MCf8Adr[] = {
/* columns rows colors chars-per-pixel */
"50 50 249 2 ",
"   c #350D04",
".  c #2D2412",
"X  c #4F1A08",
"o  c #542B14",
"O  c #672D18",
"+  c #64341B",
"@  c #7A371B",
"#  c #7B2D19",
"$  c #493627",
"%  c #553726",
"&  c #563026",
"*  c #683928",
"=  c #7C3D23",
"-  c #753A28",
";  c #793B33",
":  c #611E0B",
">  c #4E4436",
",  c #69442C",
"<  c #7A4429",
"1  c #674335",
"2  c #784534",
"3  c #71563B",
"4  c #6E512E",
"5  c #53574E",
"6  c #705649",
"7  c #6E6453",
"8  c #6A7C79",
"9  c #65726A",
"0  c #5B6F6D",
"q  c #87381C",
"w  c #863B25",
"e  c #953E21",
"r  c #893C32",
"t  c #A73E28",
"y  c #9B451D",
"u  c #90491C",
"i  c #A94B1D",
"p  c #884628",
"a  c #944C2C",
"s  c #9C4C2B",
"d  c #974626",
"f  c #9D522B",
"g  c #8D4D34",
"h  c #864936",
"j  c #984B35",
"k  c #8A5437",
"l  c #9D5333",
"z  c #95563C",
"x  c #9A5537",
"c  c #A54B2A",
"v  c #A4532D",
"b  c #AC572D",
"n  c #B5572C",
"m  c #A34E32",
"M  c #A94D34",
"N  c #A35435",
"B  c #AB5433",
"V  c #AD5B35",
"C  c #A2543B",
"Z  c #AA563B",
"A  c #A45B3B",
"S  c #AB5B3B",
"D  c #A65B35",
"F  c #B35434",
"G  c #B45B35",
"H  c #BA5D34",
"J  c #B35D3B",
"K  c #BA5C3B",
"L  c #B2553B",
"P  c #AA633A",
"I  c #B3623C",
"U  c #BB633C",
"Y  c #B46A3B",
"T  c #BC6B3D",
"R  c #B86535",
"E  c #AF622E",
"W  c #C55D37",
"Q  c #C2552E",
"!  c #C26233",
"~  c #C3643C",
"^  c #C46B3C",
"/  c #C96C39",
"(  c #CB723E",
")  c #9A5642",
"_  c #AD5E42",
"`  c #A65945",
"'  c #B45E43",
"]  c #B95C44",
"[  c #926A4C",
"{  c #AB6546",
"}  c #B46343",
"|  c #BB6543",
" . c #B46B44",
".. c #BC6B44",
"X. c #B3644C",
"o. c #BB644B",
"O. c #BC6C4B",
"+. c #B56B4D",
"@. c #BD724C",
"#. c #BC7346",
"$. c #B56C54",
"%. c #B97559",
"&. c #A57252",
"*. c #C36443",
"=. c #C46B44",
"-. c #CA6B43",
";. c #C36C4B",
":. c #C7684A",
">. c #D36C44",
",. c #C47345",
"<. c #CD7445",
"1. c #C4724B",
"2. c #CB734B",
"3. c #CC7A4D",
"4. c #C87A47",
"5. c #D2744A",
"6. c #D37C4D",
"7. c #D77948",
"8. c #C86C52",
"9. c #C57454",
"0. c #CB7453",
"q. c #CC7A54",
"w. c #C77958",
"e. c #D37654",
"r. c #D37A54",
"t. c #D87B57",
"y. c #E67D59",
"u. c #E07A4A",
"i. c #D57C64",
"p. c #C05E41",
"a. c #68827C",
"s. c #7A8C7E",
"d. c #B9855D",
"f. c #969279",
"g. c #938B6F",
"h. c #B28C6E",
"j. c #9EAE77",
"k. c #9DB57B",
"l. c #93AA68",
"z. c #A4AA7C",
"x. c #A7B67E",
"c. c #B6B07D",
"v. c #D5834B",
"b. c #CD8158",
"n. c #D98658",
"m. c #E38859",
"M. c #E7955C",
"N. c #EC8D54",
"B. c #D98964",
"V. c #D89468",
"C. c #D69675",
"Z. c #C78F6E",
"A. c #E58C66",
"S. c #E99667",
"D. c #EB9A74",
"F. c #F39871",
"G. c #D8A67A",
"H. c #E9A479",
"J. c #F6A476",
"K. c #F6AF79",
"L. c #6B7D81",
"P. c #6D8382",
"I. c #7A8B88",
"U. c #7C918C",
"Y. c #7C9186",
"T. c #7E9190",
"R. c #758F90",
"E. c #838D8A",
"W. c #84928B",
"Q. c #979687",
"!. c #90958F",
"~. c #A59A8D",
"^. c #9CA985",
"/. c #97A59C",
"(. c #A7A887",
"). c #ACBC8B",
"_. c #A8B784",
"`. c #B3BD8C",
"'. c #B8BA89",
"]. c #ABAB97",
"[. c #B7B797",
"{. c #B5A896",
"}. c #9AA9A8",
"|. c #A4ADA5",
" X c #A8B9B7",
".X c #B8BCB7",
"XX c #ADB5AB",
"oX c #C9B697",
"OX c #D2AE8A",
"+X c #FAB78A",
"@X c #F0B28D",
"#X c #C7BBA2",
"$X c #DCAF92",
"%X c #B6C493",
"&X c #ADC38C",
"*X c #BBC3B8",
"=X c #BDC4A2",
"-X c #D4C79E",
";X c #F9C89A",
":X c #F1D09D",
">X c #C7C8AA",
",X c #C7CABA",
"<X c #D7CAB7",
"1X c #D7D7BB",
"2X c #CCD2AF",
"3X c #EACEA9",
"4X c #F8CBA6",
"5X c #EAD5A8",
"6X c #F4D4A6",
"7X c #F3D5AA",
"8X c #FCDBAB",
"9X c #F9D6A8",
"0X c #EAD5B6",
"qX c #F2DBB2",
"wX c #F7D9B5",
"eX c #FCE2AD",
"rX c #FCE2BE",
"tX c #FAE5B9",
"yX c #EDE2B8",
"uX c #D1E3B3",
"iX c #CACDC4",
"pX c #D5D8C9",
"aX c #D8DCD5",
"sX c #CAD2C3",
"dX c #E4D8C5",
"fX c #EFDCCA",
"gX c #DBE4C5",
"hX c #DAE0D4",
"jX c #EAE6CA",
"kX c #F5EACC",
"lX c #F8E6C7",
"zX c #E9E9D8",
"xX c #F4ECD8",
"cX c #EEF0D5",
"vX c #FCF4DB",
"bX c #F7F5D9",
"nX c #FDF4CB",
"mX c #E9EDE1",
"MX c #EBF5E7",
"NX c #F4F4E4",
"BX c #FBF5E3",
"VX c #FBFAE5",
"CX c #FCF5EB",
"ZX c #FDFCEC",
"AX c #F5F9E7",
"SX c #FDFDF3",
"DX c #FEFEFA",
"FX c #F9F8F4",
"GX c #E9FDF2",
/* pixels */
"jXyX7X6XqX8XtX}.oX8XeX9XwXSX*XL.U.W.T.U.U.E.U.T.a.~.vXVXZXSX>X_.'.(.pXZXFXVXvXpX*XbXlXCX.XxXvXcXFXNX",
"<XlXwX7X8XlX(.].rXeX1X-XnXDXpX8 E.Y.W.W.I.Y.U.P.8 /.SXAXAX,X(.`.&X^.,XSXCXvXkXdX|.cXnXmX/.zXvXlXDXpX",
"xXwXwX5XtX[.(.qXwXoX!.z.5XSXzXL.a.P.P.8 I.E.Q.Q.f.z.3XyX-X(.).&X)._.%XbXCXVXyXlX XdXnXNX/.MXvXlXDXsX",
"FXyX:XtX#XQ.qX8XwXOX5XqX].MXZXaXiX,XoXd...T ^ ^ ^ R 3.=.,.b.V.G.'.c._.cXCXVXkXkX}.1XnXbX/.mXbXlXDX*X",
"FXyX;X8X].<XeX6X9XeXtXoX^.GXFX<Xh.z d V U B N %.@.l ] :.d Y 3. .3.G.c.gXDXCXnXVX}.1XkXvX/.mXvXrXDXXX",
"FXwX4X8X>X#XtXtXtX1X|.f.1XdXk p f A j z ) X.Z S ;.+.e i.S l w.X.l t.5.C.fXAXbXBXNXxXxXAX/.aXvXrXDX|.",
"SXlX4X8XqXoX'.'.[.].].5XZ.h B y x a +.w.q j $.x J O.u Z i.s S e.L :.2.=.B.;XkXFXZXZXZXSXsXzXBXlXSX,X",
"SXkXqX6X8XlX-X>X-XqXqXp y ..C X.C p p 9.} { D f X.} l s A.P u 7.P O.n.-.0.B.OXxXBXxXjXjXBXBXCXSXCXSX",
"SXcX5X8X6X9X8X8X8X$Xp s _ x ` N  .A ` s V w.} d 0.q.N G } L M 4.:.' } m t.8.1.H.;X5X5X3X9X5XqXnXSXAX",
"VXlX7X3XqX5X5XlX$X+ x l s 9._ N ) 8.B L | l i.^ *.A.=.B. .L ;.p K %.z @ q.<.6.} V.4XwX7X9X6X7X3XlXZX",
"VXvXlXxXxXbXVXxX* g j C d 8.' @.A ] L *.r.I :.2.-.I b ^ n.7.A.T m Z } I ,.b t.=.L @X4X7X6X9X7X6X7XvX",
"GXCXZXSXZXZXcX% < w C Z _ I ..O.d | w.B R I ~ v.G.o O | ( | 8.e.m.7.! n =.c | =.;.A.@X7XqX7X7XwX6XlX",
"AXCXBXVXvX0X&.@ j a d O.J O.V J ~ V.+ @ I ;.H 7.@X2 h U / 2.e.-.7.5.r.o.J =.H G n.1.;.@X5X5XqX7X:XwX",
"vXvXBXvX0X-X+ p N l D | ..@.D J u.+X% - ..1.;.c m.n.-.n ! W 5.D.&.@ w.A.r.=.0.e 1.2.~ D.4X7XwXwX;XlX",
"VXNXSXkXwX+ 2 - p _ ' q.J I 1.U :.+XOX_ ;.p i.*.| y =.y O.d B 4X6 X =.>.S.I ;.;.U =.5.t.@X9X7X6X7XBX",
"BXFXNXwXOX= g < x ' o.9.} | G =.T r.J.c m.P Z F.B.P q.G | M K v.Z.{ =.-.m.A.U ..:.B B.w.w.4X6X9XbXFX",
"FXSXBX9X[ p p ` _ ~ +.F 5.1.H Y B.b V.0.n n.*.t.n.A.B.m.G V F.Q 7.n.9.q.! S.B.b ;.c 2.b.q.+XvXSXSXSX",
"NXAXVX3X* z @ j t | %.K y.{ Z V S.;.B A.c U 1.2.q.3.>.y.t.n.J.y.H F ^ n.y.-.S.=.L *.n n.n.B.lXcXcXcX",
"`.%XxX(.; h a p J 9.C y.V.. h W <.A.B :.O.m J 1.9.1.1.1.<.N.S.K.B c ! M.w.d n.;.s :.n A.w.R @X_.`.`.",
"x.k.zX6 ; p N S 0.A p m.+X3 g W ~ 2.6...- ` I T 8.2.3.2.! >.e.J.3.F >.+X6 : t.D.} F c i.w.=.H.`._.).",
")._.dX, ; = N b :.B b -.D.S.-.;.*.R m.d.  ) J I U I ^ >.D.g w t.n.-.5.;XOXl ~ +Xb.c *.O.b.e.D.'.).).",
"%X_.<X+ < a d F v N ~ >.r.<.>.,.=.~ n.@X[ P I ' R 1.~ / ;X6 o e.,.>.5.S.+X6.T D.B.H *.s B.;.8.oX).).",
").x.]., < l Z U P g ;.-.Y ..:.D V e.} q.n.@.A ' T *.H ^ H.@Xw.n ,.e.5.( 7.n.#.>.D.3.K f | e.e.oX).`.",
").x.Q.1 h x } ..$.M >.;.< G y.a a t.s n m.+.# :.B. .s i t.S.U / =.}  .4.=.0.=.2.B.b U ..1.2.r.OX).`.",
"j._.g.- h g c U x p M.&.  | m.w.m P v J m.9.@ ' S.4.%.w m.,.y n.@.# ..7.A.+.p 3.S.1.8.c 9.$.U OX_.k.",
"2X1Xf.- p z N I x j S.H.2 I 4.A.2.P N U 6. .p c n.F X.d e.O.c n.n.d S 7.K.o O / S.1.*.c Z A U 4XjXgX",
"DXSX~.- = j N 1. .m ,.J.b.Y 4.R <.P p 6./ 3.a s b.=.Z c B.A d 6.n.l m 5.+X&.2 / n.v *.=.I } e.3XDXDX",
"}..XE.2 < p f @. .N ..<.2.T 5.G U O.B 2.,.n.+.J 4.3.A y A.a R 6.b.{ q t.J.K.Y 1.A.T | ..B.} 8.oX}.|.",
"P.8 9 * < g D J a l ..T -.~ U } K #.t.{ z ] @.K 6.4.1.H m.O.-.2.e.w.v =.6.v.( e.q.3.A.I q.| O.~.a.a.",
"W.Y.Y.1 < h m K l @ I R O.o.b } U T J.[   o.T =.;.~ ~ m.%.2 D U U n./ U ^ I ;.A.1.V 0.} O.;.q.Q.U.U.",
"W.W.I.1 * ; c K I w A m.%.* V J ..=.S.C.2 S R I O.2.^ F.d.X P I } ( <.} A N } v.q.v s w.} d V.W.U.T.",
"W.U.R.6 % 2 x I 2.) q F.Z.$ { V I *.6.M.1.B U { *.2.#.M.;XZ.V I @.-.D., X Z 7.-.s q.B { O.B C.Y.U.U.",
"P.L.P.9 * - g D ^ o.q n.+X9.I } J | ! R P I ^ | I K 0.3.n.A.U E 2.7.+X[ + | 5.L c n.q.A =.O.f.8 a.8 ",
"}.}./.!.6 * g v ' 9.Z l n.7.U ..X.{ ;.d p A B V P ;.;.q.P V | O.4.( S.H.J ~ <.} o.v B.} H t..X X X|.",
"SXSXZXZX~.* p B I ..O.j | ^ *.| :.G n.B x x v Z S B J } } d | *.T 4.v.( ! ^ 1.9.' l O.| ! @XSXSXDXSX",
"lXlXkXVXCX1 < j v D 1.U m } ..:.~ D 3.M.J N | S o.y ,.f } F U -.p.1.T -.-.I S 8.1.S $...Y 0XfXwXrXlX",
"5X:X7XkXCX{.* r j _ U =.Z C I m.d.X x <.t.=.e.G w.c T #.*.m.@.a | ,.=.] 8...S ` =.' = ,.V.7X9X6X6X6X",
"qX9X:XnXCXVX7 ; - ` d v 1.' e v.@Xk C H -.-.5.4.%.J | 0.~ J.k    .T 1.' _ O. .} S ' I @.4X6X7X9X8X7X",
"0X7X3XkXSXNXdX1 * p C N V w.m v S.V.U ~ U ^ n.@.o B G J W J.Z.2 ,.v Z S _ A @.J { ;.V 0XwXlXfXwX6X6X",
"mXlXlXBXCXZXVX<X, 2 w o.N E ,.8.s f .. .{ R S.C.o v n J :.6.K.t.I S X.;.S ) p o.z i $XZXZXBXVXcXxXcX",
"CXSXSXSXSXCXVXVXg., * g N v U e.O.N a a P f 4.J.b.P L K V f >.n |  .A N b.) ) E F Z.ZXDXFXSXSXFXVXSX",
"SXMX.X|.*XNXSXpXz.g.% * O x S s I @.N s 1.d J ] O.O.p } b.N e o.1.1.X.h < { q b d.-X2X,XgX2XcXCXVXCX",
"hX/.*XpXpXmXSXjXk.).f.$ & * p q } O.C e } q.I Z V 1.d O.q.O.} A a l $.) A d g &.z._._.z.z.l.2XZXBXVX",
"/.hXDXFXFXSXCXSXuXj.(.(.6 & , < z z g a p } S d  .I s P S A +.} h = g d s h oXx.&X).`.`.).k.2XDXBXSX",
"hXDXSXSXZXaXiXpXZXbXjXNXZXQ.$ % * + O g p = { p h $.{ = %.{ O j ) z = = [ ZXpX^.).%X).).).k.1XDXSXiX",
"DXFXmX*X|.XX*X*X.XFXZXSXAXFX!.5 $ $ & * ; O h p * 2 [ - w ` = O & + h.dXNXDXsX_.x.x.&X%X).x.1XSXzXXX",
"pXXX].*XhXSXSXSX*X.XSXNXZXSX/.P.U.9 > . $ & & * * % , , + + * 3 {.kXZXCXFXSX1Xj.&X&X_.&X&Xx.1XSXaX.X",
"iXiXmXSXSXCXCXSXgXXXZXZXBXSX|.8 T.U.Y.s.9 9 0 5 5 7 f.Q.].,XxXZXZXAXCXCXVXZX>Xl._._.).).x.x.gXDXZXaX",
"DXSXZXVXZXVXZXDXiXXXZXvXvXZXXX8 U.U.U.U.U.U.U.U.P./.SXVXBXBXVXZXNXBXCXBXVXZXgX%X=X%X%X%X`.`.jXSXBXSX",
"CXxXkXkXlXlXlXlX].#XrX7XkXDX X8 U.U.U.U.U.U.U.U.P./.ZXVXBXVXZXpXj.2XZXVXVXBXZXZXZXCXNXAXNXvXBXCXBXCX"
};
