/* XPM */
static char *Fondo01699141025[] = {
/* columns rows colors chars-per-pixel */
"50 50 240 2 ",
"   c #59706A",
".  c #64746C",
"X  c #6A7D7C",
"o  c #647C79",
"O  c #737B79",
"+  c #606F72",
"@  c #6B817D",
"#  c #68837A",
"$  c #75877B",
"%  c #8A8D78",
"&  c #A3997F",
"*  c #96AD69",
"=  c #9DAC7B",
"-  c #9BA875",
";  c #9EB17B",
":  c #A2AE7C",
">  c #A1AB77",
",  c #A3B27C",
"<  c #A9BB7D",
"1  c #A5B67A",
"2  c #B2A77A",
"3  c #6C7F83",
"4  c #6B8383",
"5  c #678182",
"6  c #7C8D86",
"7  c #7C8D8C",
"8  c #728885",
"9  c #7C918C",
"0  c #7E9387",
"q  c #7B8E90",
"w  c #7C9292",
"e  c #838E8C",
"r  c #838D83",
"t  c #928D88",
"y  c #82948C",
"u  c #899488",
"i  c #979888",
"p  c #8B9B94",
"a  c #969E96",
"s  c #A09581",
"d  c #9EA887",
"f  c #95A39C",
"g  c #9BA99D",
"h  c #99A59A",
"j  c #89A090",
"k  c #A3AE83",
"l  c #A8A688",
"z  c #A5B382",
"x  c #AAB583",
"c  c #A7BA83",
"v  c #ACBB85",
"b  c #ADB68D",
"n  c #ADBC8B",
"m  c #A6B68B",
"M  c #B1BD8B",
"N  c #B7B989",
"B  c #A4AB9C",
"V  c #ACAD99",
"C  c #A5A796",
"Z  c #B2AC9D",
"A  c #B4AB94",
"S  c #ACB493",
"D  c #ADBC91",
"F  c #AFBD99",
"G  c #BAB296",
"H  c #B2BD92",
"J  c #B5B29B",
"K  c #BAB99B",
"L  c #B7AC8C",
"P  c #9CA5A2",
"I  c #9CABA6",
"U  c #9CB0B0",
"Y  c #A3ADA4",
"T  c #A3ACAC",
"R  c #ABAEA3",
"E  c #B2ACA1",
"W  c #ADB5AB",
"Q  c #AAB6A7",
"!  c #B2B6AD",
"~  c #B3B9AC",
"^  c #BAB9A5",
"/  c #A7AEB3",
"(  c #ADBCB5",
")  c #A9B7B6",
"_  c #B6BCB3",
"`  c #B3BDBA",
"'  c #B8BBB5",
"]  c #C4B98D",
"[  c #C3B39A",
"{  c #C7B997",
"}  c #D5BC9A",
"|  c #CDB58F",
" . c #C6BAA1",
".. c #AEC18B",
"X. c #AFC387",
"o. c #B3C18C",
"O. c #B1C384",
"+. c #B3C193",
"@. c #B9C394",
"#. c #BDC49C",
"$. c #B9C79D",
"%. c #BBC3A4",
"&. c #BCC3B4",
"*. c #BCC5BA",
"=. c #BACABC",
"-. c #ACC2B5",
";. c #C7C59A",
":. c #D6C89C",
">. c #E9CB99",
",. c #F7CB9C",
"<. c #FCD49E",
"1. c #F5D39D",
"2. c #C6C8A8",
"3. c #D8C9A7",
"4. c #C6D1AB",
"5. c #C2D3A6",
"6. c #D9D3A6",
"7. c #C6C9B9",
"8. c #D5CCB9",
"9. c #CCD4B3",
"0. c #CBD5BB",
"q. c #D4D7B8",
"w. c #E4CDA2",
"e. c #ECCEA4",
"r. c #E7CCAA",
"t. c #F3CEA3",
"y. c #F7CEAB",
"u. c #ECD3A4",
"i. c #ECD4AB",
"p. c #EDDAAC",
"a. c #E7D6A8",
"s. c #F4D3A5",
"d. c #FBD4A5",
"f. c #F3DBA4",
"g. c #FEDAA5",
"h. c #F4D5AB",
"j. c #FAD5AB",
"k. c #F4DAAB",
"l. c #FBDBAC",
"z. c #E7CDB6",
"x. c #EDD3B2",
"c. c #ECDAB4",
"v. c #EEDCBC",
"b. c #E6D5B6",
"n. c #F3D5B1",
"m. c #F4DBB2",
"M. c #FCDCB3",
"N. c #F3DDBA",
"B. c #FCDCBA",
"V. c #F7D6B5",
"C. c #D5E2BD",
"Z. c #EFE0AA",
"A. c #FDE3AC",
"S. c #FBE5AB",
"D. c #E9E2B8",
"F. c #FDE2B4",
"G. c #F5E3BB",
"H. c #FCE3BD",
"J. c #FDECBD",
"K. c #F6EAB5",
"L. c #FFF2BE",
"P. c #B6CCC2",
"I. c #C6CDC2",
"U. c #CBCCC2",
"Y. c #CCCBCB",
"T. c #CDD3CA",
"R. c #C2D0C1",
"E. c #D5DBC3",
"W. c #DBDDC3",
"Q. c #D3D5CB",
"!. c #D4DBCB",
"~. c #DBDCCC",
"^. c #D4D5C6",
"/. c #C9D8D0",
"(. c #D4DCD3",
"). c #D9DAD4",
"_. c #D0CEC2",
"`. c #E4D9C6",
"'. c #F8DDC2",
"]. c #E2DFD9",
"[. c #DCE4C4",
"{. c #DBE3CC",
"}. c #D6E2C4",
"|. c #DDE2D4",
" X c #D8E3D5",
".X c #E2E4CC",
"XX c #ECE5CB",
"oX c #E8E8C7",
"OX c #F3E3C3",
"+X c #FCE5C5",
"@X c #F4EAC5",
"#X c #FCEBC3",
"$X c #F4E5CA",
"%X c #FBE5CB",
"&X c #F5ECCC",
"*X c #FBEBCC",
"=X c #FEF3C2",
"-X c #FDF3CD",
";X c #FBF7C8",
":X c #E3E4D2",
">X c #ECECD4",
",X c #E4E9DB",
"<X c #EAECDD",
"1X c #E4E7D7",
"2X c #F4EDD2",
"3X c #FBECD3",
"4X c #F3EDDC",
"5X c #FCEDDB",
"6X c #F7E6D3",
"7X c #ECF2D3",
"8X c #EEF3DA",
"9X c #E5F1D9",
"0X c #F3F2D4",
"qX c #FDF2D4",
"wX c #F4F3DC",
"eX c #FCF4DB",
"rX c #FDFADC",
"tX c #F4F9DC",
"yX c #ECF3CD",
"uX c #EADDE4",
"iX c #EBEEE3",
"pX c #E7EBE3",
"aX c #F4EEE4",
"sX c #FEEAE3",
"dX c #ECF2E4",
"fX c #EAF6E9",
"gX c #F4F4E3",
"hX c #FCF5E3",
"jX c #F5F9E4",
"kX c #FCFBE4",
"lX c #F6F5EB",
"zX c #FCF5EB",
"xX c #F5FBEB",
"cX c #FDFCEC",
"vX c #ECF7F4",
"bX c #FDF6F2",
"nX c #F4FBF2",
"mX c #FEFEF3",
"MX c #FEFEFA",
"NX c #F8F9F6",
/* pixels */
"XXD.h.s.m.l.B.P | M.A.<.'.mX=.o % 9 q 6 e 7 q y @ h kXcXcXmX&.v v k W.mXmXrXrX^.( 0X%XzX' gXqX>XmXdX",
"8.+Xn.f.g.+Xl A +XS.8.3.*XMX(.X 7 q w 9 6 w 7 8 o h mXcXkX4.k O.O.k 9.cXlXkX*X`.T 2X3X<Xf 9XqX'.MXQ.",
"4XM.j.p.F.[ l k.F.] a & a.mX,X@ o 3 5 @ 4 8 7 9 3 P nXmX9.= v X.O., #.kXbXcXG.OX/ `.*XjXf fXqX+XMXI.",
"NXG.1.F. .i c.M.F.{ w.F.V vXzX).I.^.^.!. X|.|.dX|.pXmXE.k v v n n v v 2XbXbXOX*XU q.-X0Xg pX5X%XMX*.",
"nXG.<.l.J 7.l.y.j.A.L.{ a vXcXcXnXmXcXcXmXmXcXkXrXkXdXD 1 ..+.H n n z W.MXzXeXrXU q.*XhXh pXhXB.MXW ",
"nXB.d.F.2. .H.J.H.z.Y % i.kXxXxXkXN.j.m.p.d.l.g.k.cX,X= O.n S M D H , 9.MXxXtXjXgXwX2XlXa (.eXH.MXY ",
"cX+Xy.l.n.[ G N S A V f.l.6XcXkXrXM.j.F.G.k.u.w.;.8.,XD = n H o.n D 1 2.mXjXkXzXkXkXcXmXT.<XhX$XMX7.",
"cX@Xx.h.l.B.:.2.:.c.S.V.n.2XcXjXcX+X} A B C h h l C jX8X#.: , < n n 1 2.kXkXhXbXgXgX2X$XkXgXzXcXlXmX",
"xX*Xa.k.h.g.l.M.l.,.d.<.>.0XvXjXkXJ.>.{ 3.r.3.n.F.rXmXMXnX[.@.1 > < 1 @.wXmXzX3Xh.h.i.i.f.u.m.;XNXxX",
"cX*Xh.t.s.u.h.N.V.K.D.N.+X6XcXkXlXb.:.a.;.6.H.>.G C 7.mXzXMXNX,X9.H = 2.cXjXqXx.j.h.k.h.s.h.h.r.*XcX",
"zXhX%X$X4XwXkXkXcXNXMXmXmXcXkXjX}.H { 2.:.] x.} & d (.mXcXeXzXcXcXhX.XgXcXcX@Xu.j.h.m.h.j.j.h.h.h.eX",
"bXgXhXmXMXcX2X@XG.#X%XzXmXkXrXxXkXB.n.{ B.u.:.F.Z.D.[.0.>XkXcXeXMXmXmXmXlXmXrXp.h.h.u.k.k.k.h.l.s.OX",
"xXhXjXxXhXh.j.M.y.d.A.F.J.kXnXzXjXH.f.:.h.c.H ;.] ;.9.9.wXzXmXmXdXdXmXnX) (.gX&Xe.k.k.s.k.n.h.k.1.N.",
"kXgXzXeXm.F.w.s p a i { l.+XcXNXcXb.[ G w.m.x.3.k.N.zXmXcXaX{.^.h u &.I y *.:XmXV.h.h.l.h.n.V.n.,.$X",
"rXlXcX+Xm.q.i B 3.3.J u V u.K.mX(.i t i :.S.l.m.d.i.rXmX7.! 7.*.y ' Q.a Q MXlXcX5Xv.r.l.k.h.h.t.k.eX",
"hXnXkXm.M.l S =XA.u.=XG.A r.h.3XxXc.Z.H.B.j.h.l.N.$XhXgX1XaXMXvX) MXMX! Q.mXzXgXmXrXG.u.u.u.s.l.qXnX",
"mXmXwXl.V.d h.V.V 0 t :.J.s.y.h.hXkXtXgXeXhXhXrXzXxXjXhXbXxXtXgXdXmXcXjXxXxXxXjXzXhXmXeX5XhXhXcXmXmX",
"wXkXzXl.y.L p.} t +XG u b.l.k.e.$XzXmXkXzXMXMXmXmXcXhXhXcXgXmXcXcX6X3XhXhXeXcXlXgXcXmX>XwXaX2X<XwX9X",
"H $.gX%Xs.e.Z.;.Z G.#XG | F.f.s.p.zXzXwXcXcX{.0.9.[.cXcXwXlXzX'.i.A.A.i.h.j.'.mXkXkX{.x n b x n M H ",
"1 ; |.mX'.y.f.V.u.a.f.g.w.p.u.t.D.cXaXkXtX2., 1 = : 9.mXkXkXv.s.z.| r.F.s.h.e.G.kXmX{.d x n n n x v ",
"v c |.mXkX%Xi.V.A.<.d.+XzX6XV.B.hXzXbXmX2.- M M O.1 b <XMX2Xu.l.n.Z % { J.f.1.<.2XMX~., o.D n M n n ",
"H x oXmXcXzXkXkXhXrXcXMXmXmXmXcXcXwXcX].m n H M D M : E.mXv.g.r.F.;X%.. ^ #XA.,.@XmXE.1 M M v o...n ",
"D z oXmXgXmXfXQ ) =.=.) Y Q P.fXmXxXkX#.; +.n o.F n = [.cXx.M.3.7 G -X%.# y 2.F.D.MX^.z n +.D D n M ",
"v v {.mXcXnXQ W q.8.7.I.Q.8.7.T Q.MX>X< ..m +.v n O.z [.eXy.M.K.3.O E =Xk.d X ^ K.mX9.* ; v m v v M ",
"> 1 yXxXmX/.` kX*XrX-XqX*X;XkXiXT |.yX> o.b H M H < +.fXrXF.] C L.q.O Z V.;X2.O 2.mX X#.#.@...v v ; ",
"q.q.kXbXmX*.Q.qXkXU.).kX*X3XrXeX`.7.8Xc > o.n n 1 - q.mXzXF.>.% , ;X6.u r { ;XK [ hXcXkXrXwX8X0X>X{.",
"MXMXMXNXmX_ .X-XcX7.P ).gX$X+X-XaX' mXC.1 1 , z c q.cXmXbX'.m.b.$ [ J.J.6.% G #XM.5XzXzXmXMXMXmXmXMX",
"/ ( -.` |.U.1XeX2XxX7.p Q.jXrXeXB I.MXmX9X1X[.`.4XcXxXgXbXhXc.l.z.u i 6.J.z.3.l.i.*XcXxXY.) ) P P I ",
"4 . o   Q iX` 8XeXzXI.! U.MXQ.g ' dXmXzXmXcXmXmXmXgXhXlXxXcXeXm.g.B.S i n.M.l.>.c.rXcXcXy   # # @ @ ",
"y 0 6 5 I MXY.' ,XI.I.lX_.' a  XMXmXcXcXqXJ.*XzXzXeXzXlXwXgXmXxX&Xm.F.>.e.g.s.x.3XzXjXcXg @ 9 0 y 9 ",
"y y 9 8 p mXMXwX0.0.cXmXiX .zXMXmX:X2.K [ | u.M.rXhXgXcXhXhXcXcXbXkX*X#XB.c.v.*XkXzXkXcXW o 9 6 7 w ",
"9 7 w 4 j gXmX{.v b %.|.MXMXcXkX*Xw.2 J E G p.j.sXxXjXcXzX0X0X5XgXcXmXNXmXxXkXcXzXxXkXcXQ @ w 7 y 9 ",
"4 3 @ @ 3 pXkXF , H , z oXmXNXqX} G [ K J h.l.x.wXxXNX6X#XOX.X*X*XqX2X@X2XzXzXxXlXzXcXmXf   X X # X ",
"I P f p 6 ).cXb M n .., +.xXMX*X{ C A Z J r.h.H.cXzX3X*XkXcXcXhXeX$X6XrXOXOXzXtXcXhXhXcXT.` ` ) ) T ",
"mXmXmXcXdXlXcX4.> n O.v , E.MXOX} 3.3.3. .i.l.#XmXrX2X`.T.9X[.g P.T I.:X8X$X2XxXeXrXeXkXcXmXmXcXMXmX",
"*X*X*XhXmXzXcXkX#.z v X., 4.mXOXl a V A V a.h.+XMXeXtXf O F x f Y.).7.k dXrX#XaXc.G.N.V.OX'.OXN.B.+X",
"i.1.t.%XcXhXhXmXjX%.z M z $.cXqXk.3.{  .G } l.OXMX2X&X!.1X4XeX(.).).q.[.1XW.qXzXs.t.s.s.h.t.h.d.s.h.",
"h.g.>.3XzXhXhXlXMX:X= @.v F mXqXc.[ J ^ K 3.j.G.mX&X&XcXxX' lX0X_ y F wX` C kXnXH.e.t.u.u.h.s.d.k.h.",
"b.f.w.6XmXwXwXzXMX}.1 n v %.xX5Xg.B.a.8.^ { d.N.kXkX6.2.h + =.C.hX|.0XrXdXXX#XmXeXOX*X+XOXOXc.x.s.s.",
"4X@X*XeXcXxXkXcX<Xm < o.; 5.mX5X1.t.A i l G t.H.NXkXoXyX_.!.[.2.Y.(.(.) -.rX+XcXnXcXcXcXcXcXhXeXqX>X",
"zXmXmXmXmXcXxXkX;.k O...m E.cXjX&XOXH.F.F.k.G.*XmXgXv.[.xXMXNXoXpXY p 6 Z hXcXcXmXcXmXmXmXcXmXbXkXmX",
"mXlX_ R  .gXmX~.= n c v b <XxXcXcXmXcXsX3X3XhXmXzXeXoX|.r I a Q >X[.jX1XoXhX0X$.9.4.9.q.C.q.yXxXhXzX",
" Xg *.T./.iXmX:X= < X.- q.cXmXMXMXmXNXmXmXmXmXmXkX2X5XpXI (.Q  X7X7X2.6X-XcXW.* z ; ; , ; - 2.cXrXzX",
"a  XMXmXmXMXcXmXC.d d $.kXmXlX` ~ W ! ( _ ~ =.T.xXkX$X7.cXq.<X' ! gX^.'.*XcX!., n ..v ....; 9.mXzXmX",
"].MXNXmXmX!.U.Q.cX9X.XkXcXmXa + o X 4 o o # o . / mXqX$X-X@.W.W ! oXqX&XeXcX}.: H n M b v z E.MXmXU.",
"mXmXiX&.B Q =.*.&.mXmXcXcXcXp # q q 7 q w w 9 8 8 ~.cXgXXX@X&X4X2Xc.@XkXcXmX0.x v M o.o.v , q.MX,X! ",
"Q.~ C &. XmXmXmX*._ mXzXzXcXI # e e r e q q 7 9 o R.mXcXzX5X3X-X2XqXkXzXlXmXE., X.v n b O.1 oXmX|.' ",
"U._.iXmXmXcXzXmX XQ mXcXzXmXI X q 9 r e q e 9 0 o T mXcXlXcXcXxXcXxXbXhXhXcX2.* , v b b c ; [.mXcX~.",
"MXmXcXkXcXcXxXMXY.W kXeXrXcXQ X 9 9 9 9 9 9 9 9 @ f mXkXhXgXhXcXgXkXzXhXkXxXC.@.%.@.@.M M H >XcXhXmX",
"zX4X&X&XOXOXOXOXA 2.H.n.%XmX) X 9 9 9 9 9 9 9 9 @ f cXcXhXcXcXW.; 4.kXcXhXzXcXcXcXcXgXzXgX4XhXzXhXzX"
};
